<?xml version="1.0" encoding="utf-8" ?>
<svg xmlns="http://www.w3.org/2000/svg" xmlns:xlink="http://www.w3.org/1999/xlink" width="626" height="417">
	<path fill="#AFCDED" d="M0 45.8572C3.04643 40.628 5.36961 36.9139 11.6367 35.2607C15.6882 34.192 19.8969 34.9092 23.4877 37.0402Q24.1512 37.4396 24.772 37.9026Q25.3927 38.3657 25.9647 38.8879Q26.5366 39.4101 27.0541 39.9863Q27.5716 40.5625 28.0295 41.1871Q28.4875 41.8117 28.8814 42.4785Q29.2753 43.1454 29.6014 43.8479Q29.9274 44.5504 30.1824 45.2818Q30.4374 46.0131 30.6188 46.7661Q30.8084 47.5226 30.9207 48.2945Q31.033 49.0663 31.0669 49.8455Q31.1007 50.6247 31.0557 51.4034Q31.0107 52.182 30.8874 52.9521Q30.764 53.7223 30.5636 54.476Q30.3631 55.2297 30.0876 55.9594Q29.8121 56.6891 29.4644 57.3872Q29.1166 58.0853 28.7002 58.7447C27.8066 60.187 26.6887 61.5215 25.4977 62.7281C26.135 63.9453 26.8226 65.1548 27.3057 66.4424L19.9305 70.0553C18.3136 66.7007 15.8919 62.8299 15.0018 59.2404C18.0382 56.8905 22.1654 56.1313 22.7575 51.6251C23.0295 49.5546 22.3713 47.4903 21.0777 45.869C19.8345 44.3108 17.9763 43.2501 15.9842 43.0559C13.9446 42.8572 12.1338 43.5783 10.5969 44.8797C9.74044 45.6049 8.98919 46.5609 8.36109 47.4891C8.01813 49.6051 7.93982 51.5053 8.30613 53.6223C6.41287 54.6727 3.33097 56.9232 1.09905 56.5574C0.693268 56.189 0.334015 55.8402 0 55.401L0 45.8572Z"/>
	<path fill="#AFCDED" d="M587.75 397.543C587.797 397.492 587.845 397.443 587.89 397.391C588.945 396.177 589.386 394.504 590.146 393.096C592.759 388.254 597.134 385.147 602.695 384.703C606.767 384.378 610.979 385.866 614.057 388.53C617.185 391.236 619.379 395.236 619.637 399.393Q619.69 400.177 619.663 400.963Q619.636 401.749 619.53 402.528Q619.424 403.307 619.24 404.071Q619.057 404.836 618.797 405.577Q618.537 406.319 618.203 407.031Q617.87 407.743 617.467 408.418Q617.063 409.093 616.594 409.723Q616.125 410.354 615.594 410.934C613.342 413.434 610.391 414.795 607.272 415.899C606.343 416.227 605.276 416.337 604.523 417L596.098 417C597.166 415.245 598.248 409.835 597.933 407.767C597.898 407.541 597.813 407.307 597.73 407.094C601.5 407.51 605.436 408.783 608.708 406.151C610.194 404.956 611.076 403.128 611.236 401.24C611.417 399.093 610.617 396.968 609.203 395.364C607.985 393.982 606.322 393.045 604.465 392.929C602.647 392.816 600.603 393.495 599.22 394.679C597.86 395.843 597.384 397.871 596.106 398.901C593.365 398.369 590.541 397.673 587.75 397.543Z"/>
	<path fill="#AFCDED" d="M550.152 0L573.318 0C574.214 0.849527 574.972 1.9148 575.598 2.97777Q576.013 3.67298 576.357 4.40639Q576.7 5.13979 576.969 5.90398Q577.237 6.66817 577.427 7.45543Q577.617 8.24268 577.727 9.04505Q577.837 9.84742 577.866 10.6568Q577.896 11.4662 577.843 12.2744Q577.791 13.0826 577.658 13.8815Q577.525 14.6803 577.312 15.4618C576.521 18.471 574.646 21.773 571.886 23.3721C572.779 24.2477 573.965 25.7391 573.985 27.0384C571.782 28.5181 568.773 29.8591 566.252 30.7351C566.274 30.5831 566.294 30.4306 566.304 30.2774C566.39 28.9124 562.297 20.7989 561.331 19.7701C563.831 18.7998 566.581 17.4724 568.259 15.3033C569.376 13.8598 569.868 12.0889 569.619 10.2772Q569.565 9.90003 569.474 9.53016Q569.382 9.1603 569.254 8.80147Q569.126 8.44265 568.963 8.09849Q568.799 7.75432 568.602 7.4283Q568.405 7.10227 568.176 6.79767Q567.947 6.49307 567.689 6.21297Q567.431 5.93287 567.146 5.68009Q566.861 5.42732 566.552 5.20442C564.929 4.01523 562.822 3.43171 560.826 3.79608C558.791 4.16749 557.142 5.4168 555.99 7.10428C554.87 8.74558 554.688 10.7731 555.055 12.6954C555.14 13.1444 555.236 13.5359 555.172 13.9949C555.157 14.1028 555.135 14.2096 555.116 14.3169C552.803 15.7843 549.853 16.8767 547.28 17.8301C547.619 16.7761 546.258 9.99789 546.968 6.92925C547.476 4.73644 550.286 1.94441 550.152 0Z"/>
	<path fill="#94A2D0" d="M604.079 361.716C604.086 360.347 600.988 355.523 600.554 352.941C599.895 349.026 601.079 344.745 603.404 341.561Q603.864 340.934 604.384 340.355Q604.903 339.776 605.477 339.25Q606.05 338.725 606.672 338.258Q607.294 337.791 607.959 337.388Q608.624 336.984 609.325 336.647Q610.026 336.311 610.757 336.044Q611.488 335.778 612.241 335.584Q612.994 335.39 613.763 335.271Q614.535 335.153 615.314 335.11Q616.094 335.068 616.873 335.101Q617.653 335.134 618.426 335.243Q619.199 335.352 619.958 335.535Q620.717 335.718 621.454 335.974Q622.192 336.23 622.901 336.557Q623.61 336.883 624.284 337.276Q624.958 337.67 625.591 338.127C626.264 339.656 626.375 365.012 625.731 366.554C625.682 366.673 625.621 366.788 625.566 366.906C624.738 365.16 619.353 359.819 617.627 359.007C619.269 358.241 620.871 356.728 622.03 355.351C623.228 353.93 623.876 352.165 623.677 350.292Q623.633 349.916 623.553 349.545Q623.473 349.175 623.357 348.814Q623.241 348.454 623.091 348.106Q622.941 347.758 622.757 347.426Q622.573 347.095 622.359 346.783Q622.144 346.471 621.9 346.181Q621.655 345.892 621.384 345.627Q621.113 345.363 620.817 345.126C619.12 343.75 617.037 343.185 614.874 343.468C613.04 343.707 611.372 344.567 610.256 346.071C606.577 351.028 609.905 352.698 610.265 355.75C610.278 355.855 610.285 355.961 610.295 356.067C608.914 358.043 606.07 360.349 604.079 361.716Z"/>
	<path fill="#94A2D0" d="M220.376 411.916C220.819 407.425 222.664 403.337 226.224 400.459C229.523 397.792 233.774 396.676 237.97 397.158Q238.748 397.246 239.514 397.411Q240.28 397.577 241.025 397.818Q241.77 398.06 242.487 398.375Q243.204 398.69 243.886 399.076Q244.568 399.462 245.207 399.914Q245.847 400.367 246.438 400.881Q247.029 401.396 247.565 401.967Q248.101 402.538 248.577 403.16C251.792 407.335 252.04 411.962 251.392 417L242.38 417C243.378 414.541 244.01 412.344 242.947 409.775Q242.802 409.433 242.623 409.107Q242.444 408.781 242.233 408.476Q242.022 408.17 241.781 407.887Q241.54 407.604 241.272 407.347Q241.003 407.09 240.71 406.862Q240.417 406.634 240.102 406.437Q239.787 406.24 239.454 406.076Q239.12 405.911 238.772 405.782Q238.434 405.652 238.085 405.556Q237.736 405.46 237.379 405.399Q237.022 405.337 236.661 405.312Q236.3 405.286 235.938 405.296Q235.576 405.305 235.216 405.351Q234.857 405.396 234.504 405.477Q234.151 405.558 233.808 405.673Q233.464 405.788 233.134 405.936C231.041 406.889 229.593 408.666 228.83 410.803Q228.581 411.51 228.373 412.23C225.707 412.161 223.036 412.126 220.376 411.916Z"/>
	<path fill="#AFCDED" d="M9.26014 417C10.9904 411.941 13.2412 407.791 18.2854 405.365Q18.9901 405.034 19.7237 404.774Q20.4573 404.514 21.2128 404.326Q21.9684 404.139 22.7386 404.026Q23.5088 403.914 24.2863 403.877Q25.0639 403.84 25.8413 403.88Q26.6187 403.919 27.3885 404.034Q28.1584 404.149 28.9133 404.339Q29.6682 404.529 30.4009 404.792Q31.134 405.067 31.836 405.414Q32.538 405.762 33.202 406.177Q33.866 406.592 34.4853 407.072Q35.1046 407.551 35.6731 408.09Q36.2416 408.628 36.7536 409.221Q37.2657 409.814 37.7162 410.454Q38.1666 411.095 38.5511 411.777Q38.9355 412.46 39.2501 413.177C39.7988 414.411 40.1908 415.694 40.524 417L32.1808 417L17.9312 417L9.26014 417Z"/>
	<path fill="#FCFBFC" d="M17.9312 417C18.9502 414.944 20.4605 413.187 22.717 412.467C24.6895 411.838 26.7498 412.186 28.534 413.185C30.1577 414.094 31.1838 415.471 32.1808 417L17.9312 417Z"/>
	<path fill="#94A2D0" d="M474.93 417C474.976 416.951 475.022 416.902 475.066 416.852C476.07 415.712 476.644 414.288 477.492 413.036C480.29 408.906 483.911 406.674 488.929 406.294C493.499 405.947 497.804 407.408 501.249 410.424C503.229 412.158 504.053 413.956 504.683 416.452L504.536 417L495.364 417L484.467 417L474.93 417Z"/>
	<path fill="#FCFBFC" d="M484.467 417C486.772 415.252 489.068 414.134 492.06 414.574C493.527 414.79 494.373 415.277 495.304 416.437L495.364 417L484.467 417Z"/>
	<path fill="#AFCDED" d="M606.332 200.057C607.03 197.896 605.351 194.807 605.605 192.343C606.06 187.929 607.769 183.947 611.267 181.112C615.672 177.544 620.104 177.34 625.466 177.931C626.459 179.518 626.24 184.272 625.915 186.173C625.858 186.509 625.742 186.745 625.597 187.05C625.039 186.739 624.47 186.421 623.867 186.207C622.001 185.542 620.101 185.649 618.312 186.497C616.185 187.504 614.811 189.182 614.011 191.364C613.467 192.846 613.992 194.746 614.236 196.28C612.258 197.912 608.775 199.17 606.332 200.057Z"/>
	<path fill="#AFCDED" d="M132.329 0L146.458 0L142.959 3.80961L144.935 7.53699Q141.131 9.29918 137.38 11.1709C135.807 7.39898 133.815 3.815 132.329 0Z"/>
	<path fill="#94A2D0" d="M625.585 245.842C626.303 247.395 626.394 254.971 625.772 256.695C625.698 256.901 625.691 256.907 625.611 257.081C625.366 257.837 625.152 258.551 624.729 259.231C622.402 260.483 618.547 259.526 615.855 259.54C616.643 258.587 616.808 257.488 617.136 256.334C618.605 251.171 621.279 248.838 625.585 245.842Z"/>
	<path fill="#94A2D0" d="M78.3319 0L82.3784 0L86.2117 3.99592Q83.1385 6.94668 79.9549 9.77803C78.2828 7.52791 76.3219 5.56184 74.3674 3.56166C75.7498 2.46446 77.0285 1.19155 78.3319 0Z"/>
	<path fill="#94A2D0" d="M371.347 0L382.604 0L384.735 2.21571C382.65 4.06861 380.642 5.99508 378.635 7.93243Q374.918 4.03345 371.347 0Z"/>
	<path fill="#94A2D0" d="M0 345.73L2.67471 343.485C4.44015 345.567 6.32607 347.531 8.20695 349.508Q5.18949 352.293 2.20361 355.111L0 352.904L0 345.73Z"/>
	<path fill="#AFCDED" d="M620.285 201.801C622.105 201.162 623.875 200.173 625.608 199.321C626.38 201.18 626.428 210.204 625.658 212.172C624.785 209.694 622.078 203.489 620.285 201.801Z"/>
	<path fill="#AFCDED" d="M423.416 304.953C426.566 304.768 429.851 305.312 432.664 306.775C436.414 308.725 438.833 311.958 440.067 315.956C440.915 318.702 441.49 322.462 440.065 325.114C441.434 325.829 442.684 326.649 443.856 327.658C447.198 330.536 449.28 334.493 449.572 338.911Q449.622 339.692 449.595 340.475Q449.569 341.257 449.465 342.033Q449.361 342.81 449.181 343.572Q449.002 344.334 448.748 345.074Q448.494 345.815 448.168 346.527Q447.843 347.239 447.449 347.916Q447.055 348.592 446.596 349.226Q446.137 349.861 445.618 350.447C441.92 354.666 437.341 356.017 431.953 356.368C431.954 356.392 431.959 356.416 431.958 356.44C431.89 357.524 431.792 358.699 431.06 359.533C428.634 360.638 424.652 357.775 422.074 357.323L421.77 357.272C422.681 355.781 422.989 353.542 424.086 352.333L424.431 352.658C424.612 353.986 423.83 355.627 423.092 356.708C425.357 357.191 427.878 358.212 429.995 359.16C430.057 359.078 430.121 358.999 430.179 358.915C430.917 357.873 431.315 356.548 431.103 355.288C434.163 355.239 437.201 354.952 440.011 353.654Q440.677 353.344 441.309 352.969Q441.941 352.595 442.532 352.158Q443.123 351.722 443.668 351.229Q444.212 350.735 444.704 350.19Q445.197 349.645 445.632 349.053Q446.067 348.461 446.441 347.828Q446.814 347.195 447.123 346.528Q447.431 345.861 447.671 345.167C449.045 341.193 448.667 336.37 446.771 332.627C445.399 329.919 442.816 327.231 439.885 326.253C439.132 328.541 437.339 330.715 435.614 332.347C436.358 332.713 437.122 333.081 437.797 333.567C439.431 334.743 440.989 336.61 441.272 338.65C441.422 339.737 441.334 340.729 440.625 341.608C440.626 341.979 440.644 342.35 440.645 342.721C440.652 344.992 442.522 346.738 442.501 348.99C441.528 350.155 436.341 352.004 434.724 352.571C434.743 352.502 434.77 352.435 434.781 352.364C434.983 351.112 433.998 349.081 433.263 348.088C431.127 347.6 429.024 346.811 426.939 346.135C426.941 346.207 426.95 346.278 426.945 346.35C426.888 347.221 426.416 348.259 425.788 348.847L425.396 348.668C425.686 347.765 426.378 346.229 426.137 345.305C426.103 345.174 426.058 345.045 426.018 344.915C427.658 345.253 431.05 347.212 432.456 346.735L432.217 345.202C433.475 343.174 437.668 342.953 439.544 341.248C440.157 340.69 440.559 339.976 440.53 339.13C440.477 337.597 439.014 335.816 437.917 334.817C437.387 334.335 436.895 333.887 436.166 333.932C436.165 334.928 436.778 335.467 437.031 336.416C435.103 337.917 431.774 339.356 429.423 340.032L429.158 340.105C429.338 339.07 428.384 337.235 427.829 336.354L427.382 336.363L426.758 337.541C425.345 337.938 419.24 335.407 417.234 335.016C418.411 334.277 418.836 332.911 419.504 331.751C422.44 326.651 426.577 325.177 431.962 323.746C432.174 323.383 432.317 323.033 432.414 322.625C432.892 320.622 432.762 318.577 431.637 316.814C430.561 315.127 428.759 313.899 426.811 313.467Q426.457 313.385 426.096 313.338Q425.735 313.291 425.371 313.28Q425.008 313.269 424.645 313.293Q424.282 313.318 423.923 313.378Q423.564 313.438 423.213 313.533Q422.862 313.628 422.521 313.757Q422.181 313.886 421.855 314.048Q421.529 314.21 421.221 314.403C418.91 315.88 417.522 318.534 417.863 321.284C417.949 321.981 418.281 322.937 418.096 323.617C418.07 323.711 418.039 323.803 418.01 323.897C415.858 325.325 413.156 326.248 410.754 327.168C410.462 326.316 410.171 325.451 409.978 324.57C409.036 320.274 409.701 315.641 412.131 311.941C414.8 307.878 418.77 305.886 423.416 304.953Z"/>
	<path fill="#FCFBFC" d="M429.12 325.126L430.304 325.029L430.638 325.395C430.594 325.479 430.555 325.565 430.508 325.647C429.599 327.237 425.781 328.522 424.118 329.027C425.257 329.928 426.702 332.601 426.888 334.046C427.018 335.058 426.738 335.476 426.132 336.196C424.929 336.532 424.292 336.195 423.103 335.866C422.054 335.022 419.96 334.717 418.664 334.406C419.589 333.609 420.197 332.297 420.895 331.297C423.653 327.344 424.904 327.377 428.951 325.218L429.12 325.126Z"/>
	<path fill="#AFCDED" d="M503.347 145.675C507.747 145.757 511.512 146.759 514.851 149.776C517.559 152.224 519.882 156.344 519.913 160.071C519.93 162.083 519.407 164.04 519.509 166.076C520.098 167.167 521.346 167.297 522.205 168.102C522.286 168.178 522.364 168.256 522.443 168.333C522.436 168.466 522.432 168.678 522.399 168.818C521.957 170.669 519.304 174.454 517.773 175.365C516.196 173.341 510.053 169.888 507.594 168.917C509.013 168.055 510.156 166.216 510.797 164.715C511.632 162.76 511.845 160.455 511.032 158.457Q510.908 158.158 510.756 157.874Q510.604 157.589 510.425 157.32Q510.245 157.051 510.04 156.801Q509.835 156.552 509.607 156.323Q509.379 156.095 509.129 155.89Q508.879 155.685 508.611 155.505Q508.342 155.325 508.057 155.173Q507.772 155.021 507.474 154.897C507.011 154.378 505.737 154.073 505.043 153.981C503.196 153.737 501.575 154.288 500.106 155.389C498.276 156.76 496.935 158.835 496.633 161.122C496.253 164.012 498.146 165.302 499.708 167.297L499.908 167.555C499.205 169.715 496.916 173.237 495.243 174.785C494.919 174.068 494.059 173.469 493.509 172.891C490.7 169.942 489.13 167.335 488.615 163.223C488.081 158.966 489.33 154.831 492.004 151.488C494.906 147.857 498.822 146.216 503.347 145.675Z"/>
	<path fill="#AFCDED" d="M226.326 6.77575Q226.861 6.73769 227.398 6.72545Q228.194 6.70771 228.988 6.76895Q229.781 6.8302 230.565 6.96983Q231.349 7.10946 232.115 7.32609Q232.881 7.54273 233.622 7.83424Q234.363 8.12576 235.071 8.48927Q235.779 8.85279 236.448 9.28473Q237.117 9.71667 237.74 10.2128Q238.363 10.7089 238.933 11.2643Q239.489 11.807 239.989 12.4019Q240.489 12.9969 240.928 13.6382Q241.367 14.2796 241.74 14.9611Q242.114 15.6426 242.418 16.3576Q242.722 17.0726 242.955 17.8142Q243.187 18.5558 243.345 19.3167Q243.504 20.0775 243.586 20.8503Q243.668 21.6231 243.674 22.4002C243.68 27.3952 241.434 31.3425 238.017 34.8028L240.07 38.4058C237.483 39.5628 234.941 40.7334 232.46 42.106C230.734 38.415 229.131 34.6463 227.268 31.0232C229.142 30.3132 230.819 29.3453 232.512 28.2814C233.288 27.6411 233.922 26.8771 234.438 26.0147C235.426 24.3629 236.052 22.6147 235.467 20.6881C234.886 18.7757 233.379 17.1772 231.652 16.2254C229.741 15.1725 227.526 14.9749 225.445 15.6071C223.655 16.151 221.967 17.2533 221.141 18.9892C220.121 21.1333 220.386 23.4084 221.211 25.5331C218.736 26.8642 216.149 27.9743 213.589 29.1269L213.532 28.9761C213.193 28.0506 212.82 27.1175 212.605 26.1539C211.695 22.0748 212.521 17.4104 214.785 13.9008C217.544 9.62359 221.503 7.78118 226.326 6.77575Z"/>
	<path fill="#AFCDED" d="M315.122 350.408C315.178 350.403 315.234 350.397 315.291 350.394C319.604 350.175 324.001 351.498 327.246 354.388Q327.829 354.917 328.357 355.501Q328.885 356.085 329.353 356.719Q329.82 357.353 330.222 358.03Q330.625 358.707 330.958 359.42Q331.291 360.134 331.551 360.877Q331.812 361.62 331.997 362.386Q332.182 363.151 332.291 363.931Q332.399 364.711 332.43 365.498C332.678 370.842 330.229 374.625 326.814 378.428C327.26 379.035 327.873 379.802 328.139 380.513C328.26 380.84 328.311 381.386 328.178 381.717C327.381 383.705 322.994 384.847 321.05 385.704C319.963 381.969 317.67 378.106 315.977 374.573C317.681 373.946 319.246 373.303 320.824 372.395C321.4 371.963 321.918 371.515 322.388 370.971C323.678 369.481 324.544 367.658 324.34 365.635C324.133 363.583 322.993 361.658 321.372 360.402Q321.065 360.165 320.736 359.961Q320.406 359.756 320.058 359.586Q319.71 359.416 319.346 359.282Q318.983 359.147 318.607 359.051Q318.232 358.954 317.849 358.895Q317.466 358.836 317.079 358.817Q316.691 358.797 316.304 358.816Q315.917 358.836 315.534 358.894C313.645 359.163 311.916 360.019 310.809 361.621C309.162 364.004 309.396 366.71 309.841 369.405C307.356 370.634 304.838 371.691 302.261 372.709C302.018 371.944 301.779 371.172 301.596 370.39C300.619 366.206 301.196 361.434 303.483 357.762C306.137 353.501 310.401 351.516 315.122 350.408Z"/>
	<path fill="#AFCDED" d="M143.639 350.425C143.805 350.409 143.971 350.389 144.138 350.382C148.385 350.19 152.686 351.637 155.839 354.513C158.928 357.33 160.672 361.484 160.786 365.641C160.932 370.975 158.577 374.733 155.093 378.482L157.29 382.022C154.734 383.29 152.173 384.43 149.519 385.477Q147.078 380.051 144.556 374.662C146.269 373.821 147.942 372.917 149.617 372.004C149.813 371.851 149.991 371.709 150.163 371.529C151.558 370.07 152.745 368.077 152.693 365.997C152.642 363.949 151.571 362.059 150.046 360.739C148.409 359.322 146.365 358.603 144.199 358.798C142.393 358.96 140.543 359.716 139.415 361.186C137.596 363.559 137.707 366.59 138.166 369.372C135.676 370.558 133.198 371.718 130.631 372.728C130.335 371.741 130.03 370.74 129.84 369.727C129.022 365.37 129.782 360.653 132.321 356.974C135.053 353.014 139.033 351.26 143.639 350.425Z"/>
	<path fill="#AFCDED" d="M522.674 86.6708C525.075 86.3811 527.305 86.3228 529.667 86.9332C533.872 88.02 537.32 90.6039 539.496 94.373Q539.88 95.0526 540.197 95.7664Q540.513 96.4802 540.759 97.2213Q541.004 97.9625 541.176 98.724Q541.349 99.4855 541.446 100.26Q541.543 101.035 541.565 101.815Q541.587 102.596 541.532 103.375Q541.478 104.154 541.348 104.923Q541.218 105.693 541.014 106.447C540.174 109.515 538.207 112.673 535.406 114.286C535.883 114.636 536.252 115.045 536.592 115.531C537.154 116.333 537.587 117.211 537.422 118.205C535.109 119.633 532.341 120.666 529.82 121.686C529.842 121.541 529.88 121.349 529.873 121.195C529.782 119.424 525.983 111.836 524.619 110.719C526.015 110.314 528.26 109.394 529.292 108.377C529.797 108.188 530.242 107.955 530.658 107.609C532.1 106.412 533.082 104.908 533.251 102.997C533.437 100.884 532.652 98.7847 531.285 97.1856C530.048 95.7393 528.285 94.747 526.371 94.618C521.225 94.2711 521.123 97.4044 518.161 99.9897C518.116 100.029 518.069 100.066 518.023 100.105C518.044 100.158 518.067 100.211 518.087 100.264C518.487 101.327 519.067 103.669 518.556 104.722C517.402 107.104 513.132 108.027 510.776 108.822C511.567 106.824 508.684 101.192 511.841 94.9145C514.14 90.342 518.04 88.248 522.674 86.6708Z"/>
	<path fill="#AFCDED" d="M48.9076 319.602C53.3495 319.523 57.3003 320.499 60.6761 323.54C63.7861 326.341 65.656 330.535 65.8058 334.708C65.9893 339.821 63.6475 343.875 60.2683 347.477C60.9744 348.714 61.5579 350.044 62.1797 351.327C59.553 352.289 57.058 353.561 54.5451 354.783C53.0839 351.044 51.2222 347.412 49.4903 343.789C51.2642 342.935 52.9802 342.047 54.686 341.061C55.2559 340.547 55.7746 339.981 56.206 339.344C57.3254 337.691 57.998 335.633 57.5186 333.648C57.0637 331.764 55.7215 330.145 54.1041 329.121C52.2984 327.978 50.1595 327.605 48.0818 328.134C46.2332 328.605 44.6643 329.636 43.6868 331.308C42.3872 333.531 42.595 336.061 43.19 338.441C40.7108 339.63 38.2031 340.723 35.67 341.791C35.2917 340.527 34.8849 339.245 34.6462 337.946C33.9029 333.899 34.9819 329.338 37.3556 325.991C40.2454 321.918 44.1887 320.408 48.9076 319.602Z"/>
	<path fill="#AFCDED" d="M477.206 339.194Q478.833 338.959 480.473 339.066Q482.113 339.174 483.695 339.62Q484.444 339.83 485.168 340.113Q485.891 340.397 486.583 340.752Q487.275 341.107 487.928 341.529Q488.581 341.951 489.188 342.436Q489.795 342.922 490.351 343.466Q490.907 344.009 491.405 344.606Q491.904 345.203 492.34 345.846Q492.776 346.49 493.146 347.174Q493.527 347.889 493.836 348.639Q494.145 349.388 494.378 350.165Q494.612 350.941 494.768 351.736Q494.924 352.531 495.002 353.338Q495.079 354.145 495.076 354.956Q495.074 355.766 494.992 356.573Q494.91 357.379 494.749 358.174Q494.588 358.968 494.35 359.743C493.526 362.437 491.604 365.482 489.071 366.838C489.253 366.985 489.244 366.969 489.434 367.174C490.25 368.051 490.997 369.517 490.944 370.726C489.282 372.284 485.543 373.47 483.347 374.287C483.381 374.134 483.455 373.861 483.451 373.686C483.416 372.118 479.404 364 478.275 363.088C479.958 362.781 482.222 362.024 483.356 360.689C483.459 360.644 483.564 360.603 483.666 360.554C484.971 359.93 486.11 358.287 486.568 356.942C487.159 355.207 486.855 353.166 486.007 351.558C485.005 349.66 483.245 348.138 481.178 347.53C479.374 346.999 477.416 347.147 475.788 348.133C473.324 349.626 471.852 352.368 472.129 355.243C472.206 356.037 472.516 357.091 472.301 357.862C472.271 357.97 472.235 358.075 472.202 358.182C469.677 359.371 467.047 360.575 464.379 361.399C464.781 359.984 463.984 358.228 463.772 356.783C463.273 353.371 464.382 349.128 466.183 346.226C468.765 342.067 472.58 340.246 477.206 339.194Z"/>
	<path fill="#AFCDED" d="M66.5203 226.624Q67.4943 226.529 68.4717 226.479Q69.2437 226.437 70.0159 226.474Q70.7882 226.51 71.5528 226.624Q72.3175 226.739 73.0667 226.929Q73.816 227.12 74.5423 227.385Q75.2686 227.65 75.9644 227.987Q76.6603 228.323 77.3187 228.729Q77.9772 229.134 78.5914 229.603Q79.2057 230.073 79.7695 230.602Q80.3374 231.134 80.8494 231.72Q81.3614 232.305 81.8124 232.939Q82.2634 233.573 82.6489 234.249Q83.0344 234.925 83.3506 235.636Q83.6667 236.347 83.9104 237.086Q84.154 237.825 84.3227 238.584Q84.4914 239.344 84.5835 240.116Q84.6756 240.889 84.6901 241.667C84.8232 246.964 82.6168 250.773 79.0589 254.46Q80.1324 256.217 81.2617 257.939C78.7648 259.232 76.1712 260.382 73.6318 261.593C71.6858 258.058 70.2187 254.248 68.3251 250.674L72.7058 248.606C73.5359 248.016 74.3213 247.435 74.9578 246.63C76.1823 245.081 76.9152 243.191 76.5977 241.199C76.2871 239.252 75.0801 237.539 73.5069 236.388C71.7387 235.093 69.6538 234.58 67.4924 234.974C65.6664 235.307 63.9457 236.197 62.92 237.795C61.4855 240.029 61.55 242.83 62.0993 245.316C60.2188 246.249 58.1419 247.437 56.1451 248.078C55.6328 248.242 55.2406 248.392 54.7637 248.115C54.049 247.699 53.747 246.859 53.5729 246.092C52.6661 242.098 53.7266 237.073 55.8853 233.635C58.3958 229.637 62.0316 227.668 66.5203 226.624Z"/>
	<path fill="#AFCDED" d="M341.17 267.009C341.278 267.001 341.386 266.992 341.495 266.986C345.544 266.759 349.874 268.322 352.829 271.087C355.97 274.025 357.67 278.071 357.768 282.35C357.864 286.539 356.448 290.574 353.522 293.606C349.841 297.419 345.576 298.312 340.492 298.424C340.092 299.755 339.602 301.072 339.156 302.389L331.219 299.48C332.367 297.455 333.079 295.13 333.891 292.953L335.646 287.976C338.105 289.254 340.649 290.448 343.497 289.958Q343.849 289.896 344.193 289.8Q344.536 289.703 344.869 289.573Q345.201 289.442 345.519 289.28Q345.837 289.117 346.137 288.923Q346.437 288.729 346.716 288.507Q346.996 288.284 347.252 288.035Q347.507 287.786 347.737 287.512Q347.967 287.239 348.168 286.944C349.326 285.266 349.779 283.248 349.393 281.241C349.031 279.361 347.959 277.627 346.356 276.564C344.642 275.428 342.348 275.12 340.355 275.554C337.768 276.118 336.335 277.979 334.966 280.086C332.53 278.892 329.878 277.969 327.285 277.186C327.917 275.968 328.547 274.708 329.355 273.596C332.378 269.437 336.222 267.798 341.17 267.009Z"/>
	<path fill="#AFCDED" d="M582.053 268.574C583.607 268.413 585.305 268.332 586.853 268.553C591.031 269.15 595.033 271.396 597.562 274.793Q598.034 275.426 598.439 276.104Q598.845 276.781 599.179 277.496Q599.514 278.212 599.775 278.957Q600.035 279.703 600.219 280.471Q600.403 281.238 600.508 282.021Q600.613 282.804 600.638 283.593Q600.664 284.382 600.609 285.17Q600.554 285.958 600.42 286.736C599.832 290.295 597.628 294.597 594.663 296.727C595.64 297.575 596.42 298.562 596.594 299.873C595.549 301.456 590.959 302.96 589.206 303.755C589.21 303.672 589.223 303.59 589.217 303.507C589.099 301.834 585.005 293.833 583.827 292.693C585.38 292.219 587.379 291.652 588.491 290.411C589.94 289.8 591.242 288.36 591.941 286.965C592.723 285.405 592.687 283.68 592.119 282.063Q591.985 281.691 591.816 281.333Q591.646 280.976 591.442 280.637Q591.238 280.299 591.001 279.982Q590.765 279.665 590.498 279.373Q590.231 279.081 589.937 278.816Q589.642 278.552 589.324 278.318Q589.005 278.084 588.664 277.883Q588.324 277.682 587.965 277.515C586.102 276.638 583.827 276.427 581.897 277.22C576.744 279.336 578.434 284.488 577.175 287.65C575.705 289.221 572.053 290.104 570.032 290.849C570.76 288.586 567.613 283.55 570.93 277.025C573.261 272.44 577.332 270.092 582.053 268.574Z"/>
	<path fill="#AFCDED" d="M286.549 188.74Q286.87 188.734 287.191 188.735Q287.966 188.743 288.737 188.827Q289.508 188.912 290.266 189.073Q291.025 189.234 291.764 189.469Q292.503 189.704 293.214 190.012Q293.926 190.319 294.604 190.696Q295.282 191.073 295.919 191.515Q296.556 191.957 297.146 192.46Q297.736 192.964 298.273 193.523Q298.818 194.081 299.305 194.691Q299.792 195.301 300.216 195.956Q300.64 196.611 300.997 197.305Q301.354 197.999 301.639 198.725Q301.925 199.452 302.137 200.203Q302.349 200.954 302.486 201.722Q302.622 202.49 302.681 203.269Q302.74 204.047 302.722 204.827C302.619 209.619 300.546 213.368 297.188 216.647L298.971 220.53C296.46 221.813 293.841 222.935 291.28 224.119C289.987 220.371 288.122 216.868 286.805 213.133C287.273 212.194 290.752 210.941 291.824 210.083L292.111 209.851Q292.293 209.656 292.469 209.456C293.838 207.888 294.714 205.911 294.55 203.793C294.401 201.878 293.367 200.154 291.888 198.96Q291.579 198.706 291.245 198.485Q290.912 198.264 290.558 198.077Q290.204 197.891 289.832 197.742Q289.461 197.592 289.077 197.482Q288.692 197.371 288.299 197.299Q287.905 197.228 287.506 197.197Q287.107 197.166 286.707 197.176Q286.307 197.186 285.91 197.236C283.985 197.489 282.209 198.46 281.094 200.071C279.417 202.494 279.703 205.089 280.116 207.832L272.676 211.195Q272.017 209.515 271.695 207.739C270.914 203.423 271.784 198.878 274.362 195.301C277.397 191.091 281.599 189.511 286.549 188.74Z"/>
	<path fill="#AFCDED" d="M458.938 214.155C460.772 213.929 462.702 213.904 464.519 214.262Q465.298 214.415 466.058 214.645Q466.819 214.875 467.552 215.178Q468.286 215.482 468.986 215.857Q469.687 216.231 470.346 216.673Q471.006 217.116 471.619 217.621Q472.232 218.126 472.791 218.689Q473.351 219.253 473.853 219.869Q474.354 220.484 474.792 221.147Q475.22 221.808 475.581 222.508Q475.942 223.207 476.232 223.939Q476.523 224.671 476.74 225.428Q476.956 226.185 477.098 226.96Q477.239 227.735 477.303 228.52Q477.367 229.305 477.354 230.092Q477.34 230.879 477.249 231.661Q477.159 232.444 476.991 233.213C476.241 236.573 474.135 240.17 471.2 242.052C472.442 243.067 473.074 244.133 473.39 245.696C471.792 247.009 467.658 248.283 465.569 249.116C465.623 248.73 465.629 248.842 465.585 248.409C465.373 246.354 461.887 239.581 460.31 238.261C461.946 237.768 464.6 237.039 465.602 235.556C466.371 235.195 466.939 234.716 467.491 234.073C468.714 232.647 469.352 231.247 469.17 229.32C468.971 227.214 467.703 225.187 466.069 223.886C464.473 222.616 462.24 221.848 460.192 222.154C458.295 222.438 456.774 223.499 455.695 225.055C454.398 226.927 454.077 229.483 454.512 231.683C454.591 232.08 454.672 232.34 454.618 232.751C454.608 232.83 454.582 232.906 454.564 232.984C451.985 234.249 449.281 235.462 446.559 236.387C447.469 233.656 443.854 228.731 448.184 221.467C450.629 217.366 454.416 215.258 458.938 214.155Z"/>
	<path fill="#94A2D0" d="M411.52 99.1194C414.466 98.8506 417.461 99.2221 420.161 100.472Q420.854 100.791 421.511 101.177Q422.169 101.564 422.785 102.014Q423.4 102.464 423.968 102.973Q424.536 103.483 425.05 104.046Q425.564 104.61 426.019 105.222Q426.474 105.834 426.866 106.488Q427.258 107.142 427.583 107.833Q427.908 108.523 428.162 109.242Q428.432 110.009 428.624 110.799Q428.816 111.589 428.928 112.394Q429.04 113.199 429.071 114.012Q429.101 114.824 429.05 115.636Q428.999 116.447 428.867 117.25Q428.735 118.052 428.523 118.837Q428.311 119.622 428.022 120.381Q427.732 121.141 427.368 121.868C425.081 126.427 421.343 128.616 416.687 130.182L416.625 134.433C413.919 134.121 411.129 134.15 408.405 134.074L408.847 122.388C409.137 121.744 414.312 122.363 416.702 121.221Q417.04 121.062 417.361 120.87Q417.682 120.679 417.982 120.456Q418.282 120.233 418.558 119.982Q418.834 119.73 419.084 119.452Q419.334 119.174 419.555 118.873Q419.776 118.571 419.966 118.25Q420.155 117.928 420.312 117.588Q420.469 117.249 420.591 116.896Q420.707 116.565 420.788 116.223Q420.869 115.882 420.916 115.534Q420.962 115.186 420.973 114.835Q420.984 114.484 420.96 114.134Q420.936 113.784 420.876 113.438Q420.816 113.092 420.722 112.754Q420.628 112.416 420.499 112.089Q420.371 111.762 420.211 111.45C419.191 109.472 417.139 108.053 415.023 107.476C413.286 107.002 411.433 107.222 409.885 108.162C407.505 109.609 406.503 111.759 405.875 114.368L397.554 113.967C398.116 110.896 398.964 108.017 400.794 105.44C403.425 101.736 407.135 99.8938 411.52 99.1194Z"/>
	<path fill="#AFCDED" d="M136.505 289.593C140.784 289.325 144.739 290.421 148.063 293.194Q148.662 293.703 149.209 294.269Q149.755 294.834 150.244 295.451Q150.732 296.067 151.158 296.728Q151.584 297.39 151.943 298.089Q152.302 298.789 152.591 299.521Q152.879 300.252 153.095 301.008Q153.311 301.765 153.452 302.538Q153.593 303.312 153.657 304.096Q153.716 304.87 153.698 305.646Q153.68 306.422 153.585 307.193Q153.491 307.963 153.32 308.72Q153.15 309.477 152.905 310.214Q152.661 310.951 152.345 311.66Q152.028 312.369 151.643 313.043Q151.259 313.717 150.809 314.349Q150.359 314.982 149.849 315.567C146.129 319.847 141.683 320.683 136.308 321.056L134.926 324.985C132.3 324.031 129.746 322.905 127.091 322.027C127.909 320.217 128.604 318.333 129.349 316.491L131.415 310.848C133.575 311.692 135.827 312.608 138.186 312.547C140.238 312.494 142.153 311.706 143.55 310.18Q143.796 309.909 144.014 309.615Q144.232 309.321 144.419 309.007Q144.606 308.693 144.761 308.361Q144.916 308.029 145.036 307.684Q145.157 307.338 145.242 306.983Q145.328 306.627 145.377 306.264Q145.426 305.902 145.439 305.536Q145.451 305.17 145.427 304.805C145.314 302.926 144.37 301.034 142.95 299.803C140.664 297.819 138.276 297.838 135.402 298.077C133.466 299.393 132.17 300.508 131.018 302.57L123.279 299.683C123.93 298.333 124.58 296.995 125.485 295.794C128.285 292.078 131.959 290.241 136.505 289.593Z"/>
	<path fill="#94A2D0" d="M122.389 151.096C125.444 150.796 128.415 151.112 131.206 152.451Q131.894 152.782 132.547 153.18Q133.199 153.577 133.81 154.037Q134.42 154.496 134.982 155.014Q135.545 155.531 136.053 156.101Q136.562 156.671 137.013 157.288Q137.463 157.905 137.851 158.563Q138.238 159.222 138.559 159.915Q138.88 160.609 139.132 161.33C140.775 166.114 139.935 170.563 137.793 175.009L140.918 177.878Q137.819 180.928 134.62 183.873C132.489 180.614 129.031 177.623 126.348 174.776C128.888 172.856 131.25 170.649 131.835 167.403C131.79 165.524 131.543 163.946 130.48 162.366C129.372 160.719 127.72 159.689 125.768 159.355C123.764 159.012 121.645 159.447 119.99 160.647C118.41 161.793 117.26 163.537 116.984 165.485C116.632 167.965 117.507 169.823 118.989 171.741Q115.864 174.644 112.695 177.5C111.045 175.068 109.67 172.705 109.075 169.786C108.238 165.679 109.052 161.206 111.421 157.734C114.095 153.817 117.842 151.956 122.389 151.096Z"/>
	<path fill="#94A2D0" d="M425.135 157.291Q425.944 157.24 426.754 157.23C431.209 157.149 435.17 158.57 438.383 161.715Q438.942 162.258 439.444 162.855Q439.945 163.451 440.386 164.094Q440.826 164.737 441.2 165.421Q441.574 166.105 441.878 166.822Q442.182 167.54 442.413 168.284Q442.644 169.029 442.8 169.792Q442.956 170.556 443.036 171.331Q443.115 172.107 443.117 172.886C443.125 175.565 442.324 179.137 440.399 181.102C441.572 181.88 442.895 182.901 443.39 184.261C443.005 185.658 438.617 189.189 437.239 189.994C437.208 189.881 437.181 189.768 437.147 189.656C436.641 188.035 430.396 181.912 428.836 181.185C431.04 180.112 433.728 177.444 434.466 175.065C434.801 173.985 434.743 173.262 434.206 172.275C434.601 171.419 434.569 170.9 434.3 170.018C433.819 168.438 432.68 167.279 431.236 166.531C429.269 165.512 427.006 165.219 424.879 165.9C423.06 166.482 421.51 167.67 420.651 169.398C418.739 173.248 420.562 174.491 421.624 177.761C421.651 177.843 421.675 177.926 421.7 178.008C420.013 180.132 417.701 181.93 415.686 183.737C414.087 181.304 412.664 178.886 412.04 176.005Q411.884 175.256 411.8 174.495Q411.717 173.735 411.707 172.97Q411.697 172.205 411.761 171.442Q411.824 170.68 411.961 169.927Q412.098 169.174 412.306 168.438Q412.515 167.702 412.793 166.989Q413.071 166.276 413.417 165.594Q413.762 164.911 414.172 164.265C416.744 160.29 420.604 158.24 425.135 157.291Z"/>
	<path fill="#AFCDED" d="M36.2082 276.188Q36.6103 276.141 37.015 276.131C41.0385 275.987 45.1967 277.523 48.1398 280.272Q48.7139 280.813 49.2306 281.409Q49.7473 282.005 50.2012 282.65Q50.6551 283.295 51.0417 283.982Q51.4282 284.67 51.7435 285.393Q52.0587 286.116 52.2994 286.867Q52.5401 287.618 52.7038 288.389Q52.8676 289.161 52.9526 289.945Q53.0377 290.729 53.0432 291.518Q53.0556 292.306 52.9899 293.091Q52.9241 293.876 52.781 294.65Q52.6379 295.425 52.4188 296.182Q52.1996 296.938 51.9067 297.67Q51.6137 298.401 51.2497 299.1Q50.8858 299.798 50.4544 300.457Q50.0231 301.116 49.5286 301.73Q49.0341 302.343 48.4813 302.904C44.709 306.736 40.1683 307.497 35.0358 307.558C34.6094 308.851 34.3052 310.179 33.9802 311.5C31.4364 310.272 28.7129 309.284 26.1003 308.201L28.6956 301.869Q29.6907 299.377 30.8499 296.956C33.0052 298.086 35.3878 299.159 37.8574 299.23C39.6075 299.28 41.1765 298.701 42.43 297.462C43.9052 296.004 44.6903 293.695 44.6152 291.645Q44.598 291.247 44.5412 290.852Q44.4845 290.458 44.3887 290.071Q44.293 289.684 44.1592 289.308Q44.0255 288.933 43.855 288.572Q43.6845 288.212 43.4791 287.871Q43.2736 287.529 43.0352 287.21Q42.7967 286.89 42.5277 286.596Q42.2587 286.302 41.9617 286.036C40.6063 284.815 38.8512 284.073 37.0033 284.226C33.9922 284.476 31.8421 286.794 30.0865 289.011C27.84 287.609 25.195 286.614 22.7737 285.53C23.506 284.339 24.2631 283.168 25.1309 282.07C28.0416 278.388 31.617 276.728 36.2082 276.188Z"/>
	<path fill="#AFCDED" d="M399.482 32.2246Q400.534 32.1423 401.589 32.1024C406.09 31.9475 410.032 33.0864 413.355 36.2167Q413.913 36.7375 414.417 37.3114Q414.921 37.8853 415.365 38.5065Q415.809 39.1278 416.189 39.7902Q416.568 40.4527 416.88 41.1497Q417.192 41.8468 417.433 42.5714Q417.674 43.2961 417.841 44.0412Q418.008 44.7862 418.101 45.5443Q418.193 46.3023 418.209 47.0658C418.315 52.2427 416.021 56.2767 412.548 59.9346C413.24 61.1021 413.859 62.2206 414.349 63.4893C411.945 64.7686 409.425 65.8711 406.959 67.0282C405.307 63.4463 403.778 59.6954 401.786 56.2907C403.248 55.5983 404.664 54.7942 406.088 54.0254C407.183 53.2686 408.007 52.5946 408.776 51.4887C409.811 49.9999 410.482 48.4452 410.083 46.5865C409.611 44.3918 408.074 42.5159 406.16 41.393C404.292 40.2964 402.162 40.0752 400.081 40.6537C398.401 41.1206 396.84 42.0739 396.002 43.6526C394.941 45.6508 394.896 48.5298 395.571 50.6344C393.146 51.9776 390.655 53.1105 388.123 54.2353C387.72 53.0299 387.353 51.8203 387.125 50.5678C386.366 46.3839 387.44 41.6978 389.876 38.2234C392.146 34.9853 395.625 32.9276 399.482 32.2246Z"/>
	<path fill="#AFCDED" d="M562.875 328.8C564.577 328.803 566.259 328.938 567.9 329.416Q568.639 329.632 569.353 329.92Q570.067 330.208 570.749 330.566Q571.431 330.923 572.074 331.347Q572.717 331.771 573.315 332.256Q573.913 332.742 574.46 333.284Q575.006 333.826 575.496 334.42Q575.987 335.014 576.415 335.654Q576.844 336.294 577.207 336.973C579.307 340.857 579.799 345.264 578.474 349.491C577.661 352.085 575.696 355.25 573.251 356.553C574.245 357.644 575 359.016 574.962 360.523C573.945 361.649 569.502 363.27 567.872 364.078C566.864 360.966 564.535 355.474 562.534 353.009C564.167 352.439 567.296 351.433 568.155 349.895C568.327 349.806 568.399 349.772 568.575 349.662C569.768 348.912 570.675 347.206 570.943 345.841C571.291 344.07 570.725 342.157 569.752 340.67C568.598 338.908 566.789 337.549 564.699 337.152C562.847 336.8 561.001 337.207 559.452 338.276C554.14 341.942 557.19 344.114 556.429 347.436C556.409 347.52 556.386 347.604 556.364 347.688C553.943 348.888 551.43 350.345 548.839 351.11C548.858 349.439 548.054 347.752 547.861 346.078C547.415 342.212 548.837 337.662 551.256 334.64C554.199 330.961 558.31 329.327 562.875 328.8Z"/>
	<path fill="#AFCDED" d="M76.2191 107.737C76.9952 107.658 77.776 107.583 78.556 107.56C82.6146 107.441 86.8073 109.065 89.7444 111.86Q90.297 112.388 90.7947 112.967Q91.2923 113.547 91.73 114.173Q92.1678 114.799 92.5413 115.466Q92.9148 116.132 93.2205 116.833Q93.5262 117.533 93.7609 118.26Q93.9957 118.987 94.1572 119.734Q94.3188 120.481 94.4055 121.24Q94.4923 121.999 94.5034 122.763Q94.5284 123.539 94.4765 124.314Q94.4246 125.088 94.2964 125.854Q94.1681 126.62 93.9647 127.369Q93.7613 128.118 93.4847 128.844Q93.2082 129.569 92.8612 130.264Q92.5143 130.958 92.1003 131.615Q91.6863 132.272 91.2094 132.884Q90.7325 133.497 90.1973 134.059C86.4537 137.977 82.1677 138.781 77.0024 138.873L76.0526 143.03C73.3521 142.038 70.6803 140.955 68.0008 139.908C68.7827 138.167 69.4545 136.367 70.1647 134.596L72.3584 128.59C75.3213 129.872 78.4557 131.318 81.6919 130.004C84.1062 129.024 85.3845 126.983 86.3802 124.691L86.3615 124.309C86.2078 121.637 85.742 119.435 83.636 117.587Q83.3771 117.363 83.0973 117.166Q82.8175 116.969 82.5196 116.801Q82.2216 116.632 81.9084 116.495Q81.5952 116.357 81.2698 116.251Q80.9445 116.144 80.6102 116.071Q80.2759 115.998 79.936 115.958Q79.5961 115.918 79.254 115.913Q78.9118 115.907 78.5708 115.935C75.4955 116.177 73.6758 117.924 71.743 120.138C69.0445 119.732 66.4461 118.457 63.9495 117.406C64.0311 117.264 64.1118 117.12 64.1971 116.979C67.2887 111.885 70.4031 109.171 76.2191 107.737Z"/>
	<path fill="#94A2D0" d="M286.214 257.496C289.355 257.211 292.783 257.984 295.528 259.52Q296.204 259.904 296.838 260.353Q297.473 260.801 298.06 261.31Q298.647 261.819 299.182 262.383Q299.716 262.947 300.193 263.561Q300.669 264.175 301.083 264.833Q301.496 265.49 301.844 266.186Q302.191 266.881 302.468 267.607Q302.745 268.333 302.949 269.083C304.125 273.304 303.29 277.72 301.151 281.485C302.196 282.486 303.204 283.53 304.225 284.556L298.083 290.275C295.388 287.248 292.523 284.352 289.777 281.369L290.081 281.134C293.173 278.736 294.914 276.63 295.407 272.703C295 271.239 294.554 269.861 293.603 268.648C292.356 267.059 290.622 266.004 288.594 265.787C286.556 265.57 284.484 266.291 282.93 267.607C281.442 268.868 280.431 270.653 280.309 272.618C280.173 274.804 280.992 276.569 282.387 278.19Q279.36 281.18 276.219 284.048C274.423 281.515 273.047 279.311 272.475 276.207C271.71 272.045 272.494 267.647 274.928 264.158C277.65 260.254 281.617 258.275 286.214 257.496Z"/>
	<path fill="#AFCDED" d="M364.739 122.998C364.951 122.984 365.162 122.969 365.374 122.964C369.816 122.87 373.939 124.152 377.136 127.328Q377.689 127.878 378.185 128.48Q378.681 129.082 379.115 129.73Q379.549 130.378 379.916 131.066Q380.284 131.754 380.581 132.475Q380.879 133.196 381.103 133.943Q381.328 134.69 381.477 135.455Q381.627 136.221 381.7 136.997Q381.773 137.774 381.768 138.554C381.72 143.356 379.47 147.468 376.1 150.755C376.849 151.968 377.467 153.282 378.12 154.55C375.622 155.808 373.011 156.889 370.454 158.025C369.023 154.378 367.222 150.738 365.433 147.254C367.259 146.353 369.018 145.431 370.749 144.352C371.9 143.436 372.859 141.861 373.294 140.464C373.835 138.724 373.602 136.847 372.732 135.254Q372.542 134.913 372.319 134.593Q372.096 134.273 371.842 133.976Q371.588 133.679 371.307 133.409Q371.025 133.139 370.718 132.899Q370.41 132.658 370.081 132.449Q369.751 132.24 369.403 132.064Q369.054 131.889 368.69 131.749Q368.325 131.609 367.949 131.506C366.124 130.996 364.157 131.13 362.499 132.095C360.004 133.547 359.115 135.968 358.382 138.607C358.676 139.642 359.077 140.66 359.434 141.675C357.723 142.509 353.636 145.002 351.825 144.431C351.012 143.645 350.668 142.798 350.491 141.697C349.819 137.491 351.008 132.538 353.576 129.143C356.448 125.346 360.141 123.673 364.739 122.998Z"/>
	<path fill="#AFCDED" d="M189.337 158.169C189.406 158.162 189.476 158.153 189.546 158.146C194.171 157.696 198.65 158.593 202.257 161.66Q202.843 162.162 203.377 162.719Q203.911 163.276 204.387 163.882Q204.864 164.489 205.278 165.139Q205.693 165.79 206.042 166.478Q206.391 167.166 206.67 167.885Q206.95 168.604 207.158 169.347Q207.365 170.09 207.499 170.85Q207.633 171.61 207.691 172.379C208.083 177.963 205.576 181.969 202.042 185.967L204.021 189.505C201.486 190.809 198.968 192.039 196.322 193.106C195.04 189.442 193.231 185.565 191.243 182.239L195.736 180.066C196.434 179.616 197.106 179.103 197.66 178.48C198.944 177.039 199.887 175.407 199.71 173.401C199.525 171.311 198.27 169.324 196.642 168.044C194.932 166.698 192.926 166.154 190.772 166.456C188.966 166.708 187.056 167.482 185.971 169.014C184.364 171.283 184.38 174.32 184.921 176.923L177.695 180.261C177.232 179.1 176.743 177.921 176.533 176.683C175.811 172.43 176.91 167.795 179.423 164.299C181.834 160.946 185.291 158.859 189.337 158.169Z"/>
	<path fill="#AFCDED" d="M222.434 337.567L222.629 337.548C227.416 337.118 231.941 337.883 235.71 341.06C238.773 343.642 240.953 348.022 241.221 352.017C241.582 357.396 238.819 361.568 235.471 365.433L237.59 368.942Q233.721 370.696 229.91 372.575C228.438 368.846 226.566 365.159 224.803 361.561L228.842 359.635C229.405 359.259 229.98 358.876 230.482 358.42C232.704 356.407 232.924 354.099 233.019 351.248C232.089 349.334 230.995 347.697 229.104 346.638Q228.776 346.452 228.431 346.3Q228.086 346.149 227.727 346.032Q227.368 345.916 227 345.836Q226.631 345.757 226.256 345.715Q225.882 345.673 225.505 345.668Q225.128 345.664 224.752 345.698Q224.377 345.732 224.006 345.803Q223.636 345.875 223.275 345.983C221.414 346.55 219.837 347.766 218.92 349.496C217.692 351.812 217.903 353.919 218.661 356.34C216.063 357.294 213.558 358.582 211.056 359.764Q210.879 359.23 210.725 358.689C209.353 353.941 209.439 349.534 211.915 345.145C214.234 341.035 218.002 338.829 222.434 337.567Z"/>
	<path fill="#94A2D0" d="M72.9237 285.621C76.117 285.405 79.0677 285.675 81.9861 287.086Q82.6898 287.422 83.3564 287.826Q84.0231 288.231 84.6461 288.7Q85.2691 289.169 85.8421 289.698Q86.4152 290.227 86.9326 290.81Q87.4501 291.393 87.9068 292.025Q88.3634 292.658 88.7547 293.332Q89.146 294.007 89.4681 294.717Q89.7901 295.427 90.0397 296.166C91.5827 300.865 90.7176 305.306 88.5058 309.601C89.5805 310.564 90.6124 311.585 91.6605 312.578C89.5402 314.481 87.4161 316.362 85.4651 318.442C82.9471 315.217 79.9418 312.309 77.1228 309.346Q77.3347 309.188 77.5442 309.027C80.4297 306.811 82.1714 305.005 82.6583 301.312C82.5397 299.694 82.1616 298.254 81.2472 296.901Q81.0491 296.607 80.8224 296.334Q80.5957 296.062 80.3426 295.814Q80.0896 295.565 79.8129 295.344Q79.5361 295.122 79.2385 294.93Q78.9408 294.737 78.6253 294.576Q78.3098 294.414 77.9796 294.285Q77.6494 294.156 77.3078 294.061Q76.9663 293.966 76.617 293.906Q76.2361 293.841 75.8507 293.814Q75.4652 293.787 75.079 293.799Q74.6928 293.811 74.3097 293.862Q73.9267 293.912 73.5506 294.001Q73.1745 294.09 72.8092 294.216Q72.4439 294.342 72.0931 294.504Q71.7423 294.666 71.4094 294.862Q71.0766 295.058 70.7651 295.287C69.2256 296.412 68.0831 298.08 67.7878 299.983C67.3965 302.504 68.3332 304.355 69.7617 306.351C67.6298 308.146 65.6262 310.156 63.583 312.055C61.8649 309.745 60.524 307.5 59.8784 304.661Q59.7088 303.895 59.615 303.116Q59.5212 302.337 59.504 301.553Q59.4868 300.769 59.5464 299.986Q59.606 299.204 59.7418 298.431Q59.8777 297.659 60.0884 296.903Q60.2992 296.147 60.5828 295.416Q60.8664 294.685 61.2203 293.984Q61.5741 293.284 61.9947 292.622C64.545 288.654 68.4118 286.584 72.9237 285.621Z"/>
	<path fill="#AFCDED" d="M166.504 254.437C170.794 254.313 174.811 255.332 178.127 258.178C181.245 260.856 183.224 264.898 183.517 268.991C183.912 274.517 181.386 278.57 177.946 282.575L180.09 286.029C177.659 287.369 174.984 288.245 172.537 289.596C170.807 285.952 169.181 282.191 167.198 278.678C169.148 277.79 170.999 276.873 172.834 275.761C173.865 274.78 174.644 273.413 175.014 272.044Q175.108 271.682 175.167 271.312Q175.225 270.943 175.246 270.569Q175.268 270.195 175.252 269.822Q175.237 269.448 175.184 269.077Q175.132 268.707 175.043 268.343Q174.954 267.98 174.83 267.627Q174.706 267.274 174.548 266.935Q174.389 266.596 174.198 266.274C173.208 264.598 171.626 263.367 169.722 262.925C167.807 262.48 165.16 262.921 163.5 264.013C159.177 266.857 161.611 270.312 160.748 272.954C160.331 274.231 154.671 276.245 153.361 276.746C153.05 275.703 152.723 274.645 152.518 273.576C151.695 269.277 152.56 264.642 155.076 261.04C157.819 257.115 161.925 255.293 166.504 254.437Z"/>
	<path fill="#94A2D0" d="M226.109 75.5803C229.432 75.3111 232.536 75.5367 235.578 77.0112Q236.266 77.3476 236.917 77.7496Q237.568 78.1517 238.177 78.6155Q238.786 79.0794 239.347 79.6006Q239.908 80.1218 240.415 80.6953Q240.922 81.2688 241.371 81.8892Q241.819 82.5096 242.205 83.1709Q242.591 83.8322 242.91 84.528Q243.229 85.2239 243.479 85.9476C245.13 90.7109 244.213 95.0104 242.042 99.4186L245.197 102.465Q242.111 105.313 239.075 108.214L230.639 99.3618C233.487 97.3558 235.461 94.9956 236.188 91.5806C236.012 89.9193 235.839 88.5737 234.929 87.1364C233.881 85.4798 232.293 84.315 230.369 83.8941Q230.001 83.8165 229.626 83.7753Q229.252 83.7342 228.875 83.7299Q228.499 83.7256 228.124 83.7582Q227.749 83.7908 227.378 83.86Q227.008 83.9292 226.647 84.0343Q226.285 84.1394 225.935 84.2795Q225.586 84.4195 225.252 84.5931Q224.918 84.7667 224.602 84.9722C222.985 86.0126 221.787 87.6714 221.394 89.5621C220.85 92.1864 221.791 94.2754 223.18 96.4365C221.024 98.1879 219.049 100.17 217.041 102.086C215.583 99.915 214.31 97.78 213.623 95.2294C212.557 91.27 213.025 86.7565 215.088 83.1933C217.536 78.965 221.515 76.7814 226.109 75.5803Z"/>
	<path fill="#94A2D0" d="M13.0076 103.741C16.2534 103.32 19.7103 103.615 22.7149 104.966Q23.4179 105.285 24.0853 105.673Q24.7527 106.062 25.3777 106.515Q26.0027 106.968 26.5789 107.482Q27.1551 107.996 27.6767 108.566Q28.1982 109.135 28.6599 109.754Q29.1216 110.373 29.5187 111.035Q29.9158 111.697 30.2443 112.396Q30.5728 113.095 30.8294 113.823C32.5427 118.613 31.5894 123.086 29.4717 127.549L32.5516 130.476L26.4507 136.16C23.4418 133.456 20.8344 130.211 18.0568 127.262C20.867 125.05 22.5514 123.455 23.6313 119.998C23.6008 118.155 23.2614 116.561 22.2387 115.015Q22.0441 114.716 21.8206 114.439Q21.5971 114.161 21.3469 113.908Q21.0967 113.654 20.8223 113.426Q20.548 113.199 20.2522 113Q19.9565 112.801 19.6423 112.633Q19.3281 112.465 18.9986 112.329Q18.6692 112.194 18.3278 112.091Q17.9864 111.989 17.6365 111.922Q17.2605 111.852 16.8794 111.819Q16.4983 111.786 16.1159 111.79Q15.7334 111.795 15.3532 111.837Q14.973 111.879 14.5988 111.958Q14.2246 112.037 13.8599 112.153Q13.4952 112.268 13.1436 112.419Q12.792 112.57 12.4569 112.754Q12.1218 112.939 11.8064 113.155C10.1859 114.262 8.97253 115.969 8.66451 117.928C8.26669 120.457 9.22803 122.343 10.6595 124.344L4.51304 130.031C2.93844 127.942 1.65985 125.767 0.945378 123.231C-0.205674 119.145 0.443183 114.806 2.55997 111.14C4.93276 107.032 8.55197 104.963 13.0076 103.741Z"/>
	<path fill="#AFCDED" d="M106.284 72.517C110.826 72.1318 114.993 72.9559 118.639 75.8377Q119.239 76.3208 119.789 76.8611Q120.338 77.4013 120.831 77.9934Q121.324 78.5855 121.756 79.2236Q122.189 79.8617 122.555 80.5395Q122.922 81.2173 123.219 81.9281Q123.517 82.6389 123.743 83.3757Q123.968 84.1126 124.12 84.8681Q124.271 85.6237 124.347 86.3906C124.951 92.4161 122.536 95.9891 118.894 100.385C119.471 101.606 120.144 102.723 120.866 103.863C118.426 105.298 115.74 106.459 113.192 107.695C111.78 103.877 109.794 100.165 108.059 96.4782C109.645 95.8866 111.145 95.2893 112.617 94.4508C114.293 93.2377 115.553 91.6621 116.095 89.6383Q116.177 89.3227 116.227 89.0005Q116.277 88.6783 116.295 88.3527Q116.312 88.0271 116.297 87.7014Q116.282 87.3756 116.235 87.053Q116.187 86.7304 116.108 86.4142Q116.029 86.0979 115.918 85.7912Q115.808 85.4844 115.667 85.1902Q115.526 84.8961 115.357 84.6174C113.787 82.0032 111.39 81.0929 108.577 80.3686C106.277 80.927 103.783 82.0694 102.478 84.1406C100.99 86.5007 101.33 88.8519 101.877 91.4487L94.2736 94.7928L94.213 94.577C92.8509 89.5945 92.7126 84.5529 95.3991 79.9763C97.9162 75.6883 101.628 73.7732 106.284 72.517Z"/>
	<path fill="#AFCDED" d="M281.689 85.079Q282.242 85.019 282.798 85.0195C286.909 85.0238 291.054 86.4153 293.992 89.3571C296.924 92.2927 298.69 96.5913 298.676 100.739Q298.674 101.534 298.592 102.324Q298.51 103.114 298.349 103.893Q298.188 104.671 297.951 105.429Q297.713 106.187 297.4 106.918Q297.087 107.648 296.703 108.344Q296.319 109.039 295.867 109.693Q295.415 110.346 294.9 110.951Q294.384 111.556 293.811 112.106C290.236 115.542 286.348 116.345 281.552 116.295L279.928 120.394Q276.082 118.85 272.191 117.424C272.998 115.706 273.641 113.889 274.338 112.123Q275.399 109.153 276.405 106.164C278.693 107.008 280.873 107.913 283.356 107.872C285.369 107.839 287.42 107.131 288.798 105.614C290.073 104.21 290.603 102.265 290.463 100.395Q290.43 99.9886 290.357 99.5874Q290.283 99.1863 290.17 98.7945Q290.057 98.4027 289.905 98.0241Q289.754 97.6456 289.565 97.284Q289.377 96.9224 289.153 96.5815Q288.929 96.2405 288.673 95.9236Q288.416 95.6067 288.129 95.3169Q287.842 95.0272 287.528 94.7675C286.108 93.6008 284.23 93.0003 282.396 93.2473C279.237 93.6726 277.55 95.7209 275.75 98.1132C273.329 96.9099 270.68 95.7037 268.049 95.0763C268.699 93.8958 269.361 92.7267 270.168 91.6446C273.209 87.568 276.737 85.7838 281.689 85.079Z"/>
	<path fill="#94A2D0" d="M394.53 365.763C397.613 365.59 400.696 366.199 403.416 367.688Q404.086 368.056 404.717 368.488Q405.348 368.92 405.934 369.413Q406.519 369.905 407.054 370.452Q407.588 370.999 408.066 371.596Q408.544 372.193 408.961 372.834Q409.379 373.476 409.731 374.155Q410.083 374.834 410.367 375.544Q410.65 376.254 410.863 376.989Q411.086 377.753 411.232 378.535Q411.378 379.317 411.446 380.109Q411.514 380.902 411.503 381.697Q411.491 382.493 411.401 383.283Q411.311 384.074 411.143 384.851Q410.975 385.629 410.731 386.386Q410.486 387.143 410.168 387.872Q409.85 388.601 409.461 389.295C407.176 393.325 403.573 395.592 399.198 396.796L399.162 401.017C396.361 401.038 393.539 400.861 390.739 400.76Q391.117 394.729 391.367 388.691C394.248 388.904 396.971 389.08 399.637 387.758C401.221 386.973 402.566 385.708 403.084 383.973C403.675 381.994 403.324 379.739 402.293 377.967C401.227 376.137 399.397 374.708 397.334 374.198C395.507 373.747 393.626 373.879 392.019 374.941C389.914 376.332 388.827 378.616 388.318 380.999C385.541 380.986 382.771 380.79 380.001 380.625C380.56 377.705 381.266 375.021 382.955 372.527C385.734 368.422 389.799 366.624 394.53 365.763Z"/>
	<path fill="#94A2D0" d="M23.8817 208.278C27.3375 208.058 30.4437 208.102 33.6483 209.637Q34.3481 209.977 35.0106 210.385Q35.6731 210.792 36.2919 211.264Q36.9106 211.735 37.4794 212.266Q38.0482 212.797 38.5615 213.381Q39.0748 213.966 39.5274 214.599Q39.9801 215.231 40.3676 215.906Q40.7551 216.581 41.0737 217.29Q41.3922 218 41.6387 218.738Q41.8902 219.476 42.0662 220.236Q42.2421 220.996 42.3407 221.77Q42.4393 222.543 42.4596 223.323Q42.4799 224.103 42.4216 224.881Q42.3633 225.658 42.227 226.426Q42.0908 227.194 41.8779 227.945Q41.6651 228.695 41.3779 229.42Q41.0906 230.145 40.7319 230.838C38.1862 235.808 34.0494 237.879 28.988 239.549L28.7268 243.542C25.9454 243.286 23.1662 242.929 20.3898 242.618C20.9154 239.5 21.211 236.367 21.513 233.22L21.6807 231.416C21.7956 231.259 21.8598 231.047 22.0253 230.945C22.135 230.877 28.1299 231.023 30.2395 230.134C31.8299 229.463 33.2442 228.386 33.8514 226.711C34.5658 224.74 34.18 222.063 33.2411 220.22C32.3714 218.512 30.8983 217.215 29.0592 216.651Q28.7015 216.541 28.3345 216.468Q27.9676 216.395 27.5952 216.359Q27.2228 216.323 26.8486 216.325Q26.4745 216.327 26.1024 216.366Q25.7303 216.405 25.364 216.481Q24.9978 216.558 24.641 216.671Q24.2842 216.783 23.9406 216.931Q23.597 217.079 23.2699 217.261C20.9747 218.552 19.9608 220.316 19.3017 222.796Q15.1817 222.479 11.0817 221.964C11.6372 219.417 12.3033 217.161 13.7531 214.955C16.1214 211.351 19.7011 209.136 23.8817 208.278Z"/>
	<path fill="#AFCDED" d="M362.79 183.247C363.462 183.183 364.137 183.125 364.813 183.114C368.993 183.044 372.969 184.51 375.976 187.441Q376.537 187.989 377.04 188.591Q377.543 189.193 377.983 189.841Q378.423 190.49 378.797 191.18Q379.17 191.87 379.473 192.593Q379.775 193.317 380.004 194.067Q380.232 194.817 380.385 195.586Q380.538 196.355 380.613 197.136Q380.687 197.917 380.684 198.701C380.656 203.515 378.528 207.639 375.13 210.946L377.088 214.659C374.564 215.926 371.936 217 369.401 218.258C367.781 214.568 366.18 210.876 364.359 207.28L368.718 205.059C370.236 204.071 371.318 203.026 372.004 201.331C372.726 199.55 372.797 197.664 372.025 195.882C371.34 194.303 369.65 192.486 368.038 191.882C366.069 191.144 362.999 191.09 361.135 192.135C356.679 194.632 358.586 199.228 357.765 201.844C355.737 203.334 352.966 204.282 350.655 205.298C350.27 204.261 349.884 203.185 349.669 202.099Q349.513 201.3 349.436 200.49Q349.36 199.68 349.362 198.866Q349.365 198.052 349.448 197.243Q349.53 196.433 349.692 195.635Q349.853 194.838 350.092 194.06Q350.33 193.281 350.644 192.531Q350.958 191.78 351.343 191.063Q351.729 190.346 352.183 189.671C354.77 185.874 358.363 184.048 362.79 183.247Z"/>
	<path fill="#94A2D0" d="M535.009 204.372C538.83 203.945 542.715 204.5 546.02 206.551Q546.682 206.964 547.3 207.44Q547.918 207.916 548.486 208.451Q549.053 208.986 549.565 209.574Q550.077 210.163 550.528 210.799Q550.979 211.436 551.365 212.114Q551.751 212.792 552.067 213.505Q552.384 214.218 552.629 214.959Q552.873 215.7 553.043 216.461Q553.217 217.243 553.311 218.038Q553.406 218.833 553.419 219.634Q553.433 220.434 553.366 221.232Q553.3 222.03 553.153 222.817Q553.006 223.605 552.781 224.373Q552.556 225.141 552.254 225.883Q551.953 226.625 551.578 227.333Q551.204 228.041 550.76 228.707C548.357 232.351 544.808 234.407 540.601 235.303C540.758 235.612 540.782 235.619 540.87 235.897C541.268 237.162 541.098 238.321 540.531 239.495L532.253 239.254C532.382 239.031 532.494 238.805 532.59 238.564C533.236 236.945 533.516 229.375 532.852 227.824C534.423 226.888 536.478 227.362 538.3 227.061C540.358 226.721 542.845 226.047 544.047 224.186C544.723 223.141 545.226 221.373 545 220.155C545.117 219.615 545.183 219.132 545.086 218.579C544.749 216.643 543.849 215.058 542.182 213.954C540.316 212.719 538.069 212.259 535.877 212.758C533.294 213.346 531.556 214.966 530.756 217.507C530.569 218.1 530.519 218.791 530.157 219.304C530.102 219.383 530.04 219.458 529.982 219.535L521.418 219.153C522.865 217.323 522.926 214.119 524.154 211.948C526.479 207.837 530.588 205.568 535.009 204.372Z"/>
	<path fill="#94A2D0" d="M316.367 58.75C319.919 58.4846 323.147 58.7642 326.341 60.4551Q327.022 60.8223 327.664 61.255Q328.305 61.6877 328.901 62.1816Q329.497 62.6756 330.041 63.2259Q330.585 63.7762 331.072 64.3776Q331.559 64.979 331.985 65.6255Q332.41 66.272 332.769 66.9574Q333.129 67.6427 333.419 68.3602Q333.709 69.0778 333.927 69.8204Q334.153 70.5755 334.304 71.3493Q334.454 72.1232 334.527 72.9081Q334.599 73.6931 334.594 74.4814Q334.588 75.2697 334.505 76.0536Q334.421 76.8374 334.259 77.6091Q334.098 78.3807 333.861 79.1326Q333.624 79.8844 333.314 80.6089Q333.003 81.3335 332.622 82.0236C330.353 86.0918 326.656 88.5136 322.243 89.745L322.208 93.9777Q318.052 93.8578 313.905 93.5495L314.476 82.5447L314.52 82.0391C315.673 81.2698 320.168 81.9542 322.804 80.4972C324.428 79.5996 325.742 78.2284 326.215 76.3893C326.733 74.3749 326.159 71.9683 325.103 70.2127C324.15 68.6291 322.7 67.4611 320.883 67.0441Q320.527 66.9629 320.164 66.917Q319.801 66.871 319.436 66.8607Q319.071 66.8503 318.706 66.8757Q318.341 66.9012 317.981 66.9621Q317.621 67.023 317.268 67.1188Q316.915 67.2146 316.573 67.3444Q316.232 67.4743 315.904 67.6368Q315.577 67.7994 315.267 67.9932C313.005 69.408 311.937 71.2624 311.381 73.8146Q307.234 73.6658 303.085 73.5751C303.557 70.9796 304.214 68.4698 305.552 66.171C308.003 61.9588 311.796 59.9714 316.367 58.75Z"/>
	<path fill="#AFCDED" d="M305.483 1.04497C305.622 1.03877 305.761 1.03584 305.901 1.03779C310.277 1.09919 314.077 2.59371 317.155 5.75599Q317.7 6.31372 318.187 6.92251Q318.674 7.5313 319.099 8.18519Q319.523 8.83909 319.881 9.53171Q320.239 10.2243 320.527 10.9489Q320.815 11.6735 321.03 12.423Q321.245 13.1724 321.385 13.9395Q321.525 14.7065 321.589 15.4836Q321.652 16.2607 321.639 17.0403C321.534 21.7531 319.398 25.5514 316.047 28.7305C316.609 30.0752 317.128 31.3538 317.993 32.5361C315.402 33.7096 312.893 34.9467 310.407 36.3296C308.772 32.5578 307.173 28.6974 305.106 25.1393C307.138 24.3956 308.992 23.5118 310.772 22.2762C312.887 20.3394 313.174 18.2468 313.58 15.5541C312.797 13.8299 312.095 12.2284 310.613 10.9919C309.084 9.71619 307.19 9.04027 305.191 9.26515Q304.825 9.30515 304.464 9.38117Q304.103 9.45718 303.752 9.56847Q303.401 9.67976 303.062 9.82524Q302.723 9.97071 302.401 10.1489Q302.078 10.3272 301.775 10.5364Q301.471 10.7457 301.19 10.9839Q300.909 11.2221 300.652 11.487Q300.396 11.7518 300.167 12.0407C298.206 14.5237 298.483 16.9813 298.791 19.9133C296.332 21.0877 293.89 22.3439 291.313 23.2382C290.831 21.521 290.482 19.7129 290.367 17.9328C290.091 13.6318 291.383 9.35648 294.271 6.1101C297.21 2.80705 301.161 1.33391 305.483 1.04497Z"/>
	<path fill="#94A2D0" d="M143.484 33.4541C146.199 33.5672 148.459 33.8332 150.954 34.9729Q151.659 35.2922 152.328 35.6802Q152.997 36.0682 153.625 36.5211Q154.252 36.974 154.831 37.4873Q155.41 38.0005 155.935 38.569Q156.46 39.1375 156.925 39.7555Q157.391 40.3736 157.792 41.035Q158.194 41.6964 158.527 42.3946Q158.861 43.0928 159.123 43.8208Q159.388 44.5484 159.58 45.2984Q159.773 46.0485 159.89 46.8138Q160.008 47.5792 160.05 48.3524Q160.092 49.1256 160.058 49.8992Q160.024 50.6727 159.914 51.4393Q159.805 52.2058 159.62 52.9578Q159.436 53.7098 159.178 54.4401Q158.921 55.1704 158.593 55.8719C156.304 60.7003 152.535 62.963 147.721 64.7247L147.542 68.8009Q143.47 68.6009 139.394 68.4873L139.857 56.346C141.779 56.4984 143.829 56.7673 145.741 56.4488C147.706 56.1212 149.307 55.1268 150.448 53.4937C151.596 51.8516 152.098 49.9278 151.737 47.9453Q151.667 47.5668 151.56 47.1973Q151.453 46.8278 151.309 46.4709Q151.165 46.1141 150.986 45.7735Q150.806 45.433 150.594 45.1122Q150.381 44.7914 150.138 44.4937Q149.894 44.1959 149.621 43.9242Q149.349 43.6524 149.051 43.4095Q148.752 43.1666 148.431 42.9549C146.667 41.8017 144.406 41.506 142.36 41.9409C138.549 42.7506 138.646 45.7028 136.908 48.3671C134.822 49.1512 130.771 48.5267 128.455 48.4552C129.156 45.2952 130.028 42.2862 131.983 39.639C134.824 35.7932 138.884 34.1362 143.484 33.4541Z"/>
	<path fill="#94A2D0" d="M59.2805 377.33C62.8311 377.051 65.9534 377.322 69.1449 379.037C72.8204 381.013 75.4594 384.382 76.6452 388.368C77.8438 392.397 77.2624 396.921 75.2324 400.59C72.9939 404.637 69.3416 406.891 64.9896 408.112L64.8521 412.449L56.5541 412.106Q56.7536 406.435 57.1071 400.771C57.1216 400.726 57.1237 400.675 57.1507 400.637C57.6705 399.9 60.4325 400.283 61.3439 400.203C63.524 400.014 65.6874 399.529 67.1354 397.786C68.4883 396.158 69.1724 394.093 68.9456 391.975C68.7346 390.006 67.7551 388.133 66.1875 386.909C64.5349 385.618 62.0807 385.164 60.032 385.439C55.7937 386.009 55.9129 389.464 53.8282 392.175C51.6202 392.648 48.3862 392.301 46.1511 391.935L45.805 391.876C46.2539 388.983 47.1119 386.237 48.7742 383.796C51.3151 380.063 54.9286 378.153 59.2805 377.33Z"/>
	<path fill="#94A2D0" d="M475.196 22.4696C478.922 21.859 482.847 22.3454 486.191 24.1283Q486.861 24.4852 487.492 24.9072Q488.122 25.3292 488.708 25.812Q489.294 26.2949 489.828 26.8338Q490.362 27.3727 490.84 27.9623Q491.318 28.5519 491.735 29.1862Q492.152 29.8206 492.503 30.4934Q492.854 31.1662 493.137 31.8707Q493.419 32.5752 493.63 33.3044Q493.861 34.0712 494.014 34.8574Q494.166 35.6435 494.239 36.4411Q494.312 37.2386 494.304 38.0395Q494.296 38.8403 494.207 39.6362Q494.118 40.4321 493.95 41.2151Q493.782 41.9981 493.536 42.7601Q493.289 43.5221 492.968 44.2555Q492.646 44.9889 492.252 45.6861C489.884 49.8664 486.141 52.0988 481.606 53.3208C481.656 53.4381 481.711 53.5536 481.756 53.6728C482.14 54.6785 481.971 56.505 481.535 57.4676Q477.36 57.3751 473.191 57.1233C473.386 56.8071 473.528 56.585 473.612 56.2182C474.029 54.3974 474.427 48.7304 473.529 47.2256C473.74 46.6832 473.917 46.0463 474.337 45.6292C475.314 44.659 480.625 45.4665 482.62 44.2685C484.21 43.3137 485.398 41.3727 485.859 39.5988C486.35 37.7116 486.005 35.7203 484.999 34.0618Q484.811 33.7489 484.593 33.4558Q484.375 33.1628 484.13 32.8924Q483.885 32.622 483.614 32.3769Q483.344 32.1319 483.05 31.9144Q482.757 31.6969 482.444 31.5091Q482.131 31.3213 481.801 31.165Q481.471 31.0087 481.128 30.8854Q480.784 30.7621 480.43 30.673C478.648 30.2421 476.187 30.3826 474.632 31.4048C473.317 32.2689 471.681 34.9102 471.403 36.4467C471.333 36.8347 471.347 36.9884 471.107 37.3339C471.06 37.4017 470.997 37.457 470.942 37.5186C468.095 37.2392 465.187 37.1884 462.328 37.0115C463.35 35.305 463.7 33.0401 464.586 31.2017C466.948 26.2973 470.178 24.2135 475.196 22.4696Z"/>
	<path fill="#94A2D0" d="M471.211 281.108C474.587 281.048 477.826 281.55 480.757 283.322C484.349 285.494 486.899 289.186 487.822 293.267C488.741 297.333 487.982 301.836 485.704 305.336C483.282 309.057 479.63 311.237 475.353 312.172C475.408 312.276 475.467 312.378 475.516 312.484C475.994 313.521 475.863 315.359 475.411 316.376C472.627 316.178 469.785 316.215 466.992 316.145C468.778 313.467 466.699 306.465 468.347 304.134C470.574 304.217 472.628 304.357 474.763 303.615C476.668 302.952 478.618 301.835 479.447 299.894C479.911 298.807 480.199 297.08 479.796 295.951C479.845 295.67 479.848 295.432 479.8 295.149C479.501 293.389 478.436 291.721 476.958 290.719Q476.628 290.5 476.278 290.314Q475.929 290.128 475.562 289.977Q475.196 289.826 474.817 289.711Q474.438 289.596 474.049 289.519Q473.661 289.442 473.267 289.403Q472.873 289.364 472.476 289.363Q472.08 289.363 471.686 289.401Q471.292 289.439 470.903 289.515C465.672 290.55 466.753 293.579 464.981 296.027C464.927 296.101 464.869 296.173 464.814 296.246C461.938 296.262 459.085 296.102 456.216 295.928C457.486 294.239 458.577 289.23 460.383 286.653C462.758 283.264 467.308 281.744 471.211 281.108Z"/>
	<path fill="#94A2D0" d="M202.806 215.632C205.223 215.527 207.499 215.892 209.731 216.828Q210.439 217.132 211.114 217.505Q211.789 217.877 212.423 218.315Q213.057 218.753 213.645 219.251Q214.233 219.75 214.769 220.304Q215.304 220.858 215.782 221.463Q216.26 222.068 216.676 222.717Q217.091 223.366 217.44 224.053Q217.79 224.741 218.069 225.459Q218.358 226.19 218.572 226.946Q218.786 227.702 218.924 228.475Q219.061 229.249 219.121 230.032Q219.18 230.816 219.161 231.601Q219.142 232.387 219.044 233.167Q218.946 233.946 218.771 234.712Q218.596 235.478 218.345 236.223Q218.094 236.967 217.77 237.683C215.505 242.706 211.697 244.975 206.763 246.828L206.728 250.712C203.984 250.752 201.239 250.642 198.496 250.562C198.617 246.542 198.641 242.46 199.065 238.46C202.282 238.706 205.181 238.916 208.033 237.11C209.51 236.174 210.579 234.902 210.957 233.156C211.391 231.147 210.781 228.916 209.625 227.255Q209.396 226.924 209.136 226.617Q208.875 226.31 208.585 226.03Q208.296 225.751 207.979 225.502Q207.663 225.253 207.323 225.037Q206.984 224.82 206.624 224.639Q206.265 224.458 205.889 224.313Q205.513 224.169 205.125 224.062Q204.737 223.956 204.34 223.889C202.57 223.591 200.75 223.849 199.286 224.953C197.354 226.408 196.403 228.53 196.039 230.844L187.688 230.451C188.282 227.035 189.207 223.888 191.442 221.161C194.387 217.568 198.291 216.064 202.806 215.632Z"/>
	<path fill="#94A2D0" d="M376.966 240.716C379.954 240.567 382.907 241.134 385.55 242.567Q386.231 242.937 386.872 243.373Q387.513 243.809 388.108 244.306Q388.703 244.804 389.245 245.357Q389.788 245.911 390.273 246.516Q390.759 247.12 391.182 247.77Q391.605 248.42 391.961 249.108Q392.318 249.796 392.605 250.517Q392.892 251.237 393.106 251.982Q393.321 252.757 393.458 253.549Q393.596 254.342 393.654 255.144Q393.713 255.946 393.691 256.75Q393.67 257.554 393.57 258.352Q393.469 259.15 393.29 259.934Q393.111 260.718 392.856 261.481Q392.6 262.243 392.27 262.977Q391.941 263.711 391.54 264.408C389.229 268.379 385.619 270.628 381.262 271.789L381.4 275.775L373.124 275.736C373.16 273.995 373.047 264.883 373.872 263.792C376.448 263.784 378.764 263.959 381.19 262.912C383.008 262.127 384.556 260.749 385.242 258.853C385.844 257.192 385.642 255.254 384.923 253.659Q384.757 253.283 384.554 252.926Q384.351 252.569 384.114 252.234Q383.876 251.899 383.605 251.59Q383.335 251.281 383.034 251.001Q382.734 250.721 382.407 250.472Q382.08 250.224 381.729 250.01Q381.379 249.796 381.009 249.618Q380.638 249.44 380.252 249.301C378.48 248.683 376.577 248.747 374.882 249.578C372.255 250.866 371.224 253.295 370.403 255.925Q366.313 255.796 362.226 255.591C362.789 252.398 363.593 249.552 365.531 246.894C368.347 243.034 372.371 241.392 376.966 240.716Z"/>
	<path fill="#94A2D0" d="M572.427 62.5194C575.706 62.5224 578.732 63.1616 581.527 64.9458Q582.18 65.3597 582.789 65.8359Q583.398 66.3121 583.957 66.8461Q584.516 67.38 585.019 67.9664Q585.523 68.5528 585.967 69.1861Q586.41 69.8193 586.789 70.4931Q587.168 71.167 587.479 71.8749Q587.789 72.5828 588.029 73.3179Q588.268 74.053 588.434 74.8081C589.325 78.9492 588.534 83.5098 586.192 87.0516C583.814 90.6484 580.189 92.7451 576.028 93.5979C576.144 93.7874 576.227 93.9736 576.293 94.1862C576.686 95.444 576.508 96.602 575.926 97.7609L567.676 97.4944C568.858 95.3136 568.429 88.7256 568.661 85.9112L569.129 85.5508C570.668 85.6077 572.406 85.8007 573.925 85.5709C575.966 85.2623 578.061 84.2061 579.266 82.4973C580.397 80.8931 580.764 78.7834 580.388 76.8694C579.982 74.7975 578.648 72.9174 576.866 71.7962Q576.57 71.6066 576.256 71.4483Q575.943 71.29 575.614 71.1647Q575.286 71.0394 574.947 70.9484Q574.607 70.8574 574.26 70.8017Q573.913 70.7459 573.562 70.726Q573.212 70.7061 572.86 70.7222Q572.509 70.7383 572.162 70.7903Q571.814 70.8424 571.474 70.9297C566.464 72.1953 567.511 74.4018 565.504 77.4904C565.449 77.5766 565.389 77.6604 565.331 77.7454Q561.055 77.5907 556.781 77.3837C558.338 75.1884 558.758 71.1112 561.333 67.8356C564.033 64.4002 568.232 63.0419 572.427 62.5194Z"/>
	<path fill="#94A2D0" d="M604.063 109.294C607.686 109.07 611.014 109.6 614.118 111.578Q614.78 111.998 615.396 112.483Q616.012 112.967 616.577 113.51Q617.143 114.053 617.651 114.65Q618.159 115.247 618.605 115.891Q619.052 116.536 619.432 117.221Q619.811 117.907 620.121 118.627Q620.431 119.347 620.668 120.094Q620.904 120.842 621.065 121.609Q621.222 122.385 621.302 123.172Q621.382 123.959 621.384 124.75Q621.387 125.542 621.312 126.329Q621.237 127.117 621.085 127.894Q620.933 128.67 620.706 129.428Q620.478 130.186 620.178 130.918Q619.877 131.65 619.506 132.349Q619.136 133.048 618.698 133.707C616.295 137.322 612.685 139.386 608.491 140.216C608.6 140.385 608.597 140.369 608.692 140.589C609.174 141.709 609.157 143.37 608.723 144.495C605.88 144.308 603.016 144.262 600.168 144.158C601.291 142.35 601.4 134.424 601.009 132.246C602.664 132.044 604.4 132.39 606.076 132.265C608.195 132.108 610.29 131.119 611.638 129.459C612.83 127.99 613.309 125.954 613.075 124.095Q613.024 123.699 612.935 123.31Q612.845 122.921 612.717 122.543Q612.589 122.165 612.424 121.801Q612.259 121.438 612.059 121.092Q611.859 120.747 611.626 120.423Q611.392 120.099 611.128 119.8Q610.864 119.501 610.571 119.229Q610.278 118.958 609.96 118.717C608.456 117.571 606.596 117.05 604.719 117.348C599.477 118.181 600.084 121.273 597.825 124.346C597.789 124.395 597.75 124.443 597.713 124.491C595.053 124.178 592.307 124.146 589.63 124.001C590.364 123.125 591.176 118.1 593.083 115.491C595.79 111.787 599.623 109.958 604.063 109.294Z"/>
	<path fill="#AFCDED" d="M538.71 123.356C539.234 123.314 539.707 123.134 540.12 123.54C541.197 124.598 543.2 128.941 543.314 130.457C541.102 131.746 538.606 132.752 536.25 133.752C534.932 133.433 533.557 127.75 531.881 126.488C534.053 125.692 536.864 124.762 538.71 123.356Z"/>
	<path fill="#AFCDED" d="M416.365 68.4824L416.718 68.6621C417.704 70.4935 419.836 73.796 419.802 75.8308C418.636 77.2939 414.63 78.5951 412.834 79.3354C411.731 78.7541 409.937 73.485 409.118 71.9753L416.365 68.4824Z"/>
	<path fill="#AFCDED" d="M330.798 387.059C330.852 387.079 330.911 387.087 330.958 387.119C332.165 387.93 333.832 392.872 334.513 394.398C332.298 395.724 329.802 396.729 327.456 397.812L326.992 397.963C325.531 396.186 324.571 392.726 323.659 390.544C325.921 389.212 328.42 388.171 330.798 387.059Z"/>
	<path fill="#94A2D0" d="M446.516 188.471C446.901 188.452 447.224 188.503 447.604 188.56C449.155 189.872 452.058 192.233 452.716 194.155C452.206 195.669 448.554 198.651 447.126 199.486C446.477 199.585 442.038 194.394 440.981 193.726C442.472 193.045 445.915 190.043 446.516 188.471Z"/>
	<path fill="#AFCDED" d="M270.38 122.412Q274.319 123.85 278.202 125.433C277.019 127.887 276.121 130.562 275.142 133.106C272.611 132.568 269.805 131.104 267.368 130.148C268.473 127.627 269.386 124.981 270.38 122.412Z"/>
	<path fill="#AFCDED" d="M29.2099 71.2106C30.8693 73.0109 32.0218 76.5165 33.0841 78.7724C30.6719 80.0056 28.205 81.1495 25.7668 82.3318C24.0433 80.7022 23.2878 77.0004 21.8853 74.8751C24.3969 73.7484 26.8267 72.5914 29.2099 71.2106Z"/>
	<path fill="#AFCDED" d="M122.527 109.133L122.936 109.187C124.449 110.846 125.577 114.369 126.559 116.47C124.093 117.553 121.668 118.624 119.333 119.972C118.127 119.415 116.144 113.753 115.308 112.291C117.756 111.332 120.136 110.225 122.527 109.133Z"/>
	<path fill="#AFCDED" d="M125.326 326.935C127.828 328.162 130.56 329.028 133.177 329.983C131.87 332.454 131.023 335.303 129.921 337.889C127.507 336.661 124.812 335.788 122.281 334.815L125.326 326.935Z"/>
	<path fill="#94A2D0" d="M35.9956 134.421C38.0296 135.706 40.1963 138.729 41.8634 140.551C39.7598 142.336 37.7709 144.303 35.7461 146.18C33.8606 144.103 32.0117 141.986 29.9397 140.092C32.0924 138.334 34.0316 136.383 35.9956 134.421Z"/>
	<path fill="#AFCDED" d="M476.14 1.0683C476.709 0.985592 476.954 0.974915 477.475 1.23133C478.609 2.9328 480.564 6.08901 480.354 8.20525C479.559 9.47327 475.246 10.839 473.798 11.4662C472.922 11.5 470.658 5.36125 469.268 4.30485C470.983 3.82555 474.868 2.25728 476.14 1.0683Z"/>
	<path fill="#94A2D0" d="M388.24 6.08674C390.25 7.38812 392.368 10.4049 394.044 12.2188C391.92 13.9681 389.923 15.9026 387.924 17.7907C385.943 15.8701 384.099 13.7571 382.211 11.742C384.303 9.98322 386.253 7.96844 388.24 6.08674Z"/>
	<path fill="#AFCDED" d="M241.742 43.3718C243.101 43.9514 244.97 49.348 245.667 50.8951C243.306 52.075 240.852 52.9136 238.598 54.3242L238.497 54.3141C237.231 53.5939 235.441 48.3758 234.742 46.807Q238.26 45.1257 241.742 43.3718Z"/>
	<path fill="#AFCDED" d="M65.9894 144.964C68.7138 145.81 71.3523 147.028 74.0693 147.934C72.8338 150.438 71.975 153.122 71.1346 155.778C68.5294 154.942 65.9506 153.783 63.3953 152.791C64.2946 150.193 65.2142 147.602 65.9894 144.964Z"/>
	<path fill="#AFCDED" d="M181.795 291.055C183.312 292.027 184.804 296.867 185.545 298.596Q181.926 300.169 178.373 301.887L178.03 301.833C176.656 299.644 175.71 296.872 174.658 294.494Q178.182 292.683 181.795 291.055Z"/>
	<path fill="#94A2D0" d="M95.1758 316.397C97.2053 318.288 99.0582 320.531 100.96 322.561L94.8866 328.155C92.837 326.391 91.0691 324.072 89.0874 322.178C91.1896 320.318 93.1911 318.382 95.1758 316.397Z"/>
	<path fill="#AFCDED" d="M474.607 250.84C475.155 250.748 475.398 250.698 475.928 250.928C477.028 252.751 478.912 255.868 478.954 258.006C476.915 259.185 474.587 260.431 472.308 261.041L471.999 261.228C470.436 260.154 469.593 255.71 467.862 254.028C469.884 253.4 472.959 252.139 474.607 250.84Z"/>
	<path fill="#AFCDED" d="M379.243 219.559C380.533 222.007 381.627 224.586 382.779 227.102C380.274 227.946 377.798 229.367 375.412 230.523C374.235 229.845 372.459 224.449 371.83 222.967C374.277 221.756 376.716 220.596 379.243 219.559Z"/>
	<path fill="#94A2D0" d="M248.772 106.359C250.581 108.462 252.5 110.475 254.386 112.509C252.389 114.416 250.402 116.315 248.278 118.083Q245.417 115.016 242.596 111.914C244.812 110.36 246.797 108.219 248.772 106.359Z"/>
	<path fill="#AFCDED" d="M491.984 376.185C492.21 376.132 492.538 376.027 492.778 376.026C493.245 376.024 493.382 376.025 493.703 376.361C495.004 377.72 496.743 381.232 496.663 383.148C495.439 384.412 492.038 385.505 490.346 386.035C490.271 386.071 490.203 386.126 490.121 386.144C488.94 386.411 486.864 380.243 485.692 379.114C487.75 378.396 490.153 377.369 491.984 376.185Z"/>
	<path fill="#AFCDED" d="M575.109 32.2526C575.775 32.2144 576.075 32.0688 576.593 32.5893C577.734 33.7347 579.503 37.9603 579.506 39.5683C578.382 40.7872 574.549 41.9725 572.874 42.5445L572.511 42.7226C570.979 41.7519 570.287 37.0324 568.541 35.5075C570.571 34.7607 573.473 33.6818 575.109 32.2526Z"/>
	<path fill="#AFCDED" d="M319.777 37.5264C321.086 38.2619 322.925 43.3262 323.685 44.9158C321.392 46.0701 319.122 47.1377 316.724 48.0561C316.462 47.9739 316.17 47.9556 315.938 47.8096C315.358 47.4457 313.017 41.9386 312.477 40.9575C314.966 39.9525 317.366 38.7039 319.777 37.5264Z"/>
	<path fill="#AFCDED" d="M526.807 171.66C526.933 171.653 527.148 171.63 527.285 171.653C528.781 171.899 532.96 174.799 533.867 176.011C533.861 176.089 533.863 176.168 533.848 176.245C533.573 177.685 530.956 181.514 529.716 182.362C528.022 182.536 524.332 179.181 522.535 178.36C524.056 177.073 526.183 173.581 526.807 171.66Z"/>
	<path fill="#AFCDED" d="M158.969 387.025C159.013 387.039 159.059 387.044 159.1 387.065C160.18 387.618 162.227 393.02 162.862 394.377C160.504 395.654 157.958 396.672 155.506 397.76C154.172 396.952 152.732 392.098 151.793 390.399C154.211 389.357 156.585 388.148 158.969 387.025Z"/>
	<path fill="#AFCDED" d="M63.8688 356.127C65.1951 356.682 67.161 362.241 67.8023 363.713C65.3529 364.681 63.0038 365.774 60.6481 366.949C59.177 365.991 57.6076 361.279 56.7491 359.513Q60.3514 357.909 63.8688 356.127Z"/>
	<path fill="#AFCDED" d="M379.817 159.548L380.175 159.616C381.782 161.297 382.754 164.725 383.996 166.835C381.69 168.002 379.31 169.053 376.969 170.151L376.573 170.225C375.348 169.516 373.592 164.537 372.747 163.003C375.145 162.006 377.486 160.702 379.817 159.548Z"/>
	<path fill="#94A2D0" d="M307.621 288.509C308.962 289.018 312.26 293.116 313.554 294.399L307.714 300.007C305.907 299.37 303.229 295.539 301.73 294.096C303.832 292.37 305.713 290.442 307.621 288.509Z"/>
	<path fill="#94A2D0" d="M144.372 181.916C146.408 183.494 148.297 185.965 150.116 187.842L144.138 193.691C142.239 191.589 140.372 189.45 138.283 187.532C140.45 185.924 142.412 183.781 144.372 181.916Z"/>
	<path fill="#AFCDED" d="M576.128 365.791C576.648 365.687 577.198 365.421 577.658 365.777C578.934 366.761 580.681 371.307 580.767 372.91C579.541 374.102 576.055 375.316 574.401 375.75L573.908 375.943C571.894 374.7 571.714 370.406 569.712 368.757C571.684 368.221 574.537 367.069 576.128 365.791Z"/>
	<path fill="#AFCDED" d="M597.998 305.259C598.479 305.239 598.748 305.217 599.173 305.461C600.323 307.236 602.192 310.265 602.284 312.403C600.469 313.849 597.728 314.797 595.585 315.655C595.384 315.733 595.49 315.714 595.213 315.684C594.578 315.615 592.372 309.373 591.496 308.31C593.611 307.8 596.253 306.55 597.998 305.259Z"/>
	<path fill="#AFCDED" d="M329.443 304.282C331.789 305.609 334.607 306.46 337.167 307.288Q335.782 311.232 334.269 315.129C331.629 314.459 329.002 313.162 326.507 312.082C327.623 309.539 328.508 306.896 329.443 304.282Z"/>
	<path fill="#AFCDED" d="M82.5942 263.164L82.9086 263.155C84.6548 264.266 85.9196 268.573 86.7044 270.501C84.4789 271.708 82.2171 272.579 79.8429 273.443L79.6276 273.55C78.2189 273.002 76.4563 267.879 75.7966 266.413C78.1076 265.42 80.3454 264.288 82.5942 263.164Z"/>
	<path fill="#AFCDED" d="M301.058 225.36C302.297 226.06 304.047 231.536 304.642 233.011C302.214 233.842 299.914 235.157 297.626 236.312C296.61 235.918 294.476 230.239 293.734 228.897Q297.411 227.159 301.058 225.36Z"/>
	<path fill="#94A2D0" d="M472.864 62.8231C475.399 62.2426 478.671 62.6903 481.291 62.7753C481.397 62.9652 481.434 63.0038 481.484 63.248C481.8 64.773 481.616 69.4402 480.875 70.7985L480.665 70.9995C478.238 71.4388 474.975 70.8765 472.473 70.7388C472.606 70.5342 472.717 70.3904 472.809 70.1701C473.44 68.6623 473.553 64.3228 472.864 62.8231Z"/>
	<path fill="#AFCDED" d="M146.595 12.5298L147.108 12.6415C148.392 14.9549 149.474 17.418 150.617 19.8059C148.436 21.1342 146.076 22.1045 143.742 23.1281L143.519 23.2027C142.195 22.6706 140.386 17.386 139.746 15.9483C142.064 14.9075 144.325 13.6747 146.595 12.5298Z"/>
	<path fill="#AFCDED" d="M205.97 194.415C207.569 196.001 208.772 199.809 209.749 201.901Q206.165 203.749 202.464 205.35C200.822 203.246 199.998 200.353 198.651 198.015C201.14 196.919 203.549 195.651 205.97 194.415Z"/>
	<path fill="#94A2D0" d="M139.157 73.808C141.865 74.0935 144.638 74.1445 147.359 74.3016Q147.161 78.3216 147.055 82.3451L138.73 82.1878C138.789 79.3802 138.868 76.6027 139.157 73.808Z"/>
	<path fill="#AFCDED" d="M239.394 373.971C240.547 374.62 242.519 380.012 243.166 381.392C240.79 382.45 238.439 383.573 236.079 384.664C234.561 383.847 232.952 379.037 231.997 377.363Q235.74 375.765 239.394 373.971Z"/>
	<path fill="#AFCDED" d="M24.0356 313.104C26.5657 313.855 29.1147 315.341 31.6423 316.272C30.3876 318.783 29.4424 321.546 28.3931 324.155Q24.6868 322.127 20.658 320.855C21.9714 318.402 22.9547 315.672 24.0356 313.104Z"/>
	<path fill="#94A2D0" d="M532.04 244.727C534.709 244.4 537.522 244.717 540.205 244.849C540.345 245.089 540.449 245.257 540.499 245.535C540.784 247.105 540.711 251.595 539.87 252.95C538.692 253.488 533.34 252.906 531.75 252.839C531.843 252.684 531.96 252.513 532.025 252.339C532.591 250.837 532.607 246.266 532.04 244.727Z"/>
	<path fill="#94A2D0" d="M467.177 321.463Q471.167 321.606 475.159 321.604C475.594 322.539 475.431 323.901 475.412 324.934C475.384 326.505 475.646 328.719 474.502 329.821C471.762 329.832 469.017 329.695 466.279 329.598C467.502 327.991 467.325 323.492 467.177 321.463Z"/>
	<path fill="#94A2D0" d="M600.203 149.649C602.745 149.386 605.478 149.681 608.037 149.792C608.595 150.736 608.554 151.715 608.57 152.783C608.594 154.346 608.742 156.935 607.635 158.077Q603.561 157.845 599.482 157.712C599.518 157.662 599.557 157.614 599.591 157.563C600.656 155.957 600.598 151.539 600.203 149.649Z"/>
	<path fill="#94A2D0" d="M408.071 139.432L416.348 139.688L416.079 147.985Q411.987 147.771 407.893 147.608L408.071 139.432Z"/>
	<path fill="#94A2D0" d="M198.296 256.014C201.01 256.19 203.728 256.192 206.447 256.216L206.11 264.481C203.357 264.482 200.586 264.218 197.84 264.029C197.943 261.354 198.011 258.677 198.296 256.014Z"/>
	<path fill="#94A2D0" d="M19.8199 248.184C22.587 248.325 25.334 248.589 28.0904 248.866L27.2933 257.022Q23.1854 256.666 19.0931 256.162C19.4362 253.526 19.5844 250.834 19.8199 248.184Z"/>
	<path fill="#94A2D0" d="M313.556 99.0107Q317.684 99.247 321.817 99.3874L321.514 107.591Q317.417 107.492 313.326 107.254C313.527 104.517 313.512 101.754 313.556 99.0107Z"/>
	<path fill="#94A2D0" d="M390.577 406.206C393.29 406.258 396.002 406.441 398.712 406.591C398.513 409.256 398.551 411.978 398.488 414.652L390.235 414.462Q390.355 410.332 390.577 406.206Z"/>
	<path fill="#94A2D0" d="M567.679 103.18C570.085 102.678 572.938 103.129 575.374 103.296C575.73 103.917 575.823 104.363 575.864 105.068C575.969 106.899 576.299 110.033 575.039 111.435Q571.05 111.275 567.057 111.264C568.132 109.289 567.787 105.4 567.679 103.18Z"/>
	<path fill="#94A2D0" d="M372.653 280.988C375.354 281.399 378.247 281.366 380.982 281.505Q380.726 285.512 380.574 289.524C377.84 289.538 375.121 289.393 372.392 289.251C372.588 286.514 372.576 283.733 372.653 280.988Z"/>
</svg>
